if (_typeface_js && _typeface_js.loadFace) _typeface_js.loadFace({"glyphs":{"¦":{"x_min":278,"x_max":418,"ha":694,"o":"m 278 277 l 418 277 l 418 -237 l 278 -237 l 278 277 m 278 971 l 418 971 l 418 457 l 278 457 l 278 971 "},"Ž":{"x_min":39,"x_max":1058,"ha":1091,"o":"m 39 0 l 39 216 l 689 794 l 67 794 l 67 1003 l 1052 1003 l 1052 794 l 392 205 l 1058 205 l 1058 0 l 39 0 m 417 1104 l 206 1320 l 446 1320 l 546 1216 l 646 1320 l 887 1320 l 675 1104 l 417 1104 "},"Á":{"x_min":-49,"x_max":1125,"ha":1076,"o":"m 398 415 l 663 415 l 528 724 l 398 415 m -49 0 l 426 1003 l 667 1003 l 1125 0 l 845 0 l 754 212 l 312 212 l 222 0 l -49 0 m 417 1104 l 519 1320 l 814 1320 l 593 1104 l 417 1104 "},"Î":{"x_min":-99,"x_max":582,"ha":482,"o":"m 115 0 l 115 1003 l 367 1003 l 367 0 l 115 0 m 370 1320 l 582 1104 l 341 1104 l 241 1207 l 141 1104 l -99 1104 l 112 1320 l 370 1320 "},"e":{"x_min":45,"x_max":945,"ha":990,"o":"m 313 470 l 687 469 q 630 579 680 539 q 500 619 580 619 q 369 578 420 619 q 313 470 319 538 m 932 243 q 771 44 885 114 q 494 -26 658 -26 q 166 82 287 -26 q 45 375 45 190 q 165 667 45 560 q 494 775 286 775 q 828 663 711 775 q 945 345 945 551 l 945 314 l 306 314 q 359 183 308 231 q 494 135 410 135 q 607 163 560 135 q 676 243 655 191 l 932 243 "},"»":{"x_min":96,"x_max":773,"ha":865,"o":"m 393 291 l 96 53 l 96 273 l 229 375 l 96 474 l 96 696 l 393 457 l 393 291 m 773 291 l 476 53 l 476 273 l 609 375 l 476 474 l 476 696 l 773 457 l 773 291 "},"∆":{"x_min":0,"x_max":968,"ha":968,"o":"m 483 752 l 262 174 l 705 174 l 483 752 m 381 999 l 586 999 l 968 0 l 0 0 l 381 999 "},"ò":{"x_min":45,"x_max":990,"ha":1035,"o":"m 296 373 q 356 215 296 274 q 518 157 417 157 q 678 216 618 157 q 739 375 739 275 q 679 532 739 473 q 518 591 619 591 q 356 531 417 591 q 296 373 296 472 m 45 375 q 171 667 45 560 q 518 775 297 775 q 863 667 737 775 q 990 375 990 560 q 863 81 990 189 q 518 -26 737 -26 q 172 81 299 -26 q 45 375 45 189 m 470 850 l 250 1066 l 544 1066 l 647 850 l 470 850 "},"^":{"x_min":282,"x_max":1105,"ha":1389,"o":"m 608 990 l 778 990 l 1105 610 l 945 610 l 694 861 l 441 610 l 282 610 l 608 990 "},"«":{"x_min":93,"x_max":770,"ha":865,"o":"m 473 457 l 770 696 l 770 474 l 635 375 l 770 273 l 770 53 l 473 291 l 473 457 m 93 457 l 390 696 l 390 474 l 255 375 l 390 273 l 390 53 l 93 291 l 93 457 "},"∙":{"x_min":102,"x_max":404,"ha":507,"o":"m 102 489 q 145 596 102 552 q 253 640 189 640 q 359 596 315 640 q 404 489 404 552 q 359 381 404 425 q 253 338 315 338 q 145 381 189 338 q 102 489 102 425 "},"í":{"x_min":96,"x_max":493,"ha":450,"o":"m 110 0 l 110 749 l 341 749 l 341 0 l 110 0 m 96 850 l 198 1066 l 493 1066 l 272 850 l 96 850 "},"ˆ":{"x_min":7,"x_max":688,"ha":694,"o":"m 476 1066 l 688 850 l 447 850 l 347 953 l 247 850 l 7 850 l 218 1066 l 476 1066 "},"µ":{"x_min":-43,"x_max":803,"ha":847,"o":"m 139 741 l 335 741 l 283 445 q 267 342 273 391 q 262 263 262 294 q 290 169 262 200 q 377 139 319 139 q 483 194 445 139 q 545 392 520 250 l 607 741 l 803 741 l 672 0 l 490 0 l 502 79 q 439 2 474 26 q 356 -22 404 -22 q 276 -2 311 -22 q 212 59 240 17 l 151 -297 l -43 -297 l 139 741 "},"č":{"x_min":45,"x_max":958,"ha":1000,"o":"m 958 305 q 821 65 946 157 q 501 -26 695 -26 q 170 83 295 -26 q 45 375 45 193 q 171 667 45 560 q 518 775 297 775 q 819 693 708 775 q 950 461 931 612 l 694 461 q 635 561 684 526 q 503 596 586 596 q 352 535 409 596 q 296 373 296 474 q 352 212 296 272 q 504 153 409 153 q 637 195 584 153 q 696 305 690 237 l 958 305 m 389 850 l 178 1066 l 418 1066 l 518 962 l 618 1066 l 859 1066 l 647 850 l 389 850 "},"’":{"x_min":97.0625,"x_max":370,"ha":482,"o":"m 109 762 l 109 1003 l 370 1003 l 370 840 q 345 692 370 756 q 264 557 321 627 l 97 557 q 169 667 147 619 q 192 757 192 714 l 192 762 l 109 762 "},"-":{"x_min":96,"x_max":580,"ha":675,"o":"m 96 265 l 96 483 l 580 483 l 580 265 l 96 265 "},"Q":{"x_min":58,"x_max":1260,"ha":1320,"o":"m 797 205 l 714 298 l 866 440 l 953 346 q 977 413 969 375 q 985 501 985 451 q 897 736 985 649 q 660 823 809 823 q 422 736 509 823 q 335 501 335 650 q 424 263 335 349 q 670 178 513 178 q 740 184 708 178 q 797 205 771 191 m 954 30 q 816 -11 889 2 q 659 -26 744 -26 q 221 117 385 -26 q 58 501 58 260 q 221 885 58 741 q 659 1029 384 1029 q 1097 885 934 1029 q 1260 501 1260 741 q 1226 300 1260 388 q 1126 148 1192 212 l 1216 50 l 1065 -92 l 954 30 "},"M":{"x_min":113,"x_max":1416,"ha":1528,"o":"m 113 0 l 113 1003 l 437 1003 l 761 284 l 1094 1003 l 1416 1003 l 1416 0 l 1175 0 l 1175 669 l 863 0 l 653 0 l 354 680 l 354 0 l 113 0 "},"œ":{"x_min":45,"x_max":1632,"ha":1678,"o":"m 296 373 q 356 215 296 274 q 518 157 417 157 q 679 216 619 157 q 740 375 740 275 q 679 532 740 473 q 518 591 619 591 q 356 531 417 591 q 296 373 296 472 m 1002 470 l 1376 470 q 1319 579 1369 539 q 1189 619 1269 619 q 1058 578 1108 619 q 1002 470 1008 538 m 858 80 q 709 0 791 26 q 518 -26 626 -26 q 172 81 299 -26 q 45 375 45 189 q 171 667 45 560 q 518 775 298 775 q 719 748 632 775 q 858 670 805 721 q 995 748 913 722 q 1182 775 1077 775 q 1515 663 1398 775 q 1632 344 1632 552 l 1632 317 l 994 317 q 1045 184 994 234 q 1182 135 1097 135 q 1296 163 1248 135 q 1365 243 1344 192 l 1620 243 q 1459 44 1573 114 q 1182 -26 1345 -26 q 1001 0 1081 -26 q 858 80 921 26 "},"{":{"x_min":107,"x_max":599,"ha":694,"o":"m 599 1002 l 599 860 q 581 860 592 860 q 567 861 571 861 q 474 835 498 861 q 450 725 450 809 l 450 562 q 419 420 450 462 q 309 359 389 377 q 419 300 389 341 q 450 158 450 258 l 450 -4 q 473 -113 450 -87 q 567 -139 497 -139 q 581 -138 571 -139 q 599 -138 592 -138 l 599 -280 q 572 -280 589 -280 q 547 -281 555 -281 q 434 -273 479 -281 q 356 -248 388 -265 q 301 -186 317 -225 q 286 -50 286 -147 l 286 119 q 251 251 286 212 q 134 290 216 290 q 121 289 130 290 q 107 289 111 289 l 107 431 q 121 430 111 431 q 134 429 130 429 q 251 468 216 429 q 286 601 286 508 l 286 771 q 301 907 286 868 q 356 970 317 947 q 434 995 388 987 q 547 1003 479 1003 q 572 1002 555 1003 q 599 1002 589 1002 "},"¼":{"x_min":108,"x_max":1547,"ha":1575,"o":"m 1302 218 l 1308 432 l 1108 218 l 1302 218 m 1302 0 l 1302 115 l 968 115 l 968 238 l 1278 547 l 1449 547 l 1449 218 l 1547 218 l 1547 115 l 1449 115 l 1449 0 l 1302 0 m 342 -26 l 1073 1003 l 1232 1003 l 499 -26 l 342 -26 m 275 430 l 275 793 l 108 793 l 108 885 l 121 885 q 239 906 199 885 q 292 977 280 928 l 424 977 l 424 430 l 275 430 "},"#":{"x_min":31,"x_max":1038,"ha":1068,"o":"m 481 575 l 421 409 l 591 409 l 650 575 l 481 575 m 481 993 l 631 993 l 532 711 l 696 711 l 796 993 l 946 993 l 846 711 l 1038 711 l 987 575 l 797 575 l 740 411 l 937 411 l 889 275 l 692 275 l 591 -7 l 441 -7 l 542 275 l 376 275 l 275 -7 l 126 -7 l 225 275 l 31 275 l 82 411 l 273 411 l 332 575 l 129 575 l 179 711 l 380 711 l 481 993 "},"Ê":{"x_min":113,"x_max":1003,"ha":1054,"o":"m 113 0 l 113 1003 l 1003 1003 l 1003 800 l 365 800 l 365 631 l 933 631 l 933 427 l 365 427 l 365 211 l 1003 211 l 1003 0 l 113 0 m 686 1320 l 898 1104 l 657 1104 l 557 1207 l 457 1104 l 217 1104 l 428 1320 l 686 1320 "},")":{"x_min":40,"x_max":496,"ha":611,"o":"m 40 -283 q 196 31 145 -127 q 248 359 248 190 q 196 688 248 529 q 40 1003 145 847 l 268 1003 q 438 659 380 822 q 496 359 496 497 q 438 60 496 222 q 268 -283 380 -102 l 40 -283 "},"Å":{"x_min":-49,"x_max":1125,"ha":1076,"o":"m 472 1189 q 489 1145 472 1161 q 537 1129 507 1129 q 585 1145 567 1129 q 604 1189 604 1162 q 586 1232 604 1216 q 537 1248 568 1248 q 489 1232 507 1248 q 472 1189 472 1216 m 343 1188 q 395 1292 343 1254 q 539 1330 447 1330 q 681 1292 629 1330 q 733 1188 733 1254 q 681 1084 733 1122 q 539 1047 630 1047 q 395 1084 447 1047 q 343 1188 343 1122 m 398 415 l 663 415 l 528 724 l 398 415 m -49 0 l 426 1003 l 667 1003 l 1125 0 l 845 0 l 754 212 l 312 212 l 222 0 l -49 0 "},"¸":{"x_min":146,"x_max":535,"ha":694,"o":"m 146 -276 l 169 -213 q 255 -231 218 -225 q 324 -238 292 -238 q 373 -225 356 -238 q 391 -188 391 -212 q 376 -157 391 -169 q 338 -145 361 -145 q 318 -147 330 -145 q 290 -153 307 -149 l 248 -126 l 314 0 l 405 0 l 355 -82 q 386 -77 371 -79 q 417 -76 402 -76 q 503 -106 471 -76 q 535 -188 535 -137 q 490 -284 535 -253 q 354 -315 446 -315 q 261 -305 312 -315 q 146 -276 210 -295 "},"a":{"x_min":62,"x_max":973,"ha":1035,"o":"m 711 361 q 545 325 668 337 q 523 323 530 323 q 357 289 392 309 q 323 228 323 270 q 357 159 323 185 q 448 133 391 133 q 640 189 566 133 q 714 335 714 245 q 713 352 714 346 q 711 361 713 357 m 938 121 q 946 53 938 77 q 973 17 954 30 l 973 0 l 718 0 l 706 82 q 570 0 646 26 q 394 -26 494 -26 q 150 41 239 -26 q 62 223 62 108 q 142 382 62 329 q 416 451 222 434 q 488 455 442 453 q 712 541 712 471 q 669 605 712 584 q 539 626 626 626 q 412 596 452 626 q 370 503 371 566 l 128 502 l 128 505 q 237 705 128 636 q 553 775 346 775 q 733 755 655 775 q 864 695 811 735 q 921 619 904 665 q 938 479 938 572 l 938 121 "},"=":{"x_min":172,"x_max":984,"ha":1157,"o":"m 172 336 l 984 336 l 984 201 l 172 201 l 172 336 m 172 628 l 984 628 l 984 493 l 172 493 l 172 628 "},"˚":{"x_min":151,"x_max":543,"ha":694,"o":"m 280 979 q 298 935 280 952 q 347 919 316 919 q 395 935 377 919 q 414 979 414 952 q 395 1023 414 1007 q 347 1040 377 1040 q 298 1023 316 1040 q 280 979 280 1007 m 151 979 q 203 1083 151 1045 q 347 1121 256 1121 q 490 1083 437 1121 q 543 979 543 1045 q 491 875 543 912 q 347 838 439 838 q 203 875 256 838 q 151 979 151 913 "},"ú":{"x_min":94,"x_max":937,"ha":1029,"o":"m 937 749 l 937 0 l 705 0 l 705 113 q 572 14 644 47 q 413 -18 500 -18 q 247 12 317 -18 q 138 100 177 42 q 104 184 114 136 q 94 337 94 233 l 94 749 l 326 749 l 326 386 q 362 215 326 261 q 488 169 398 169 q 647 224 589 169 q 705 379 705 280 l 705 749 l 937 749 m 386 850 l 488 1066 l 783 1066 l 562 850 l 386 850 "},"¯":{"x_min":35,"x_max":659,"ha":694,"o":"m 659 885 l 35 885 l 35 1029 l 659 1029 l 659 885 "},"Z":{"x_min":39,"x_max":1058,"ha":1091,"o":"m 39 0 l 39 216 l 689 794 l 67 794 l 67 1003 l 1052 1003 l 1052 794 l 392 205 l 1058 205 l 1058 0 l 39 0 "},"u":{"x_min":94,"x_max":937,"ha":1029,"o":"m 937 749 l 937 0 l 705 0 l 705 113 q 572 14 644 47 q 413 -18 500 -18 q 247 12 317 -18 q 138 100 177 42 q 104 184 114 136 q 94 337 94 233 l 94 749 l 326 749 l 326 386 q 362 215 326 261 q 488 169 398 169 q 647 224 589 169 q 705 379 705 280 l 705 749 l 937 749 "},"k":{"x_min":110,"x_max":1003,"ha":987,"o":"m 110 0 l 110 1003 l 341 1003 l 341 466 l 673 749 l 972 749 l 603 443 l 1003 0 l 694 0 l 432 299 l 341 227 l 341 0 l 110 0 "},"Ù":{"x_min":113,"x_max":1139,"ha":1253,"o":"m 363 1003 l 363 464 q 425 249 363 316 q 625 182 487 182 q 752 202 698 182 q 840 264 806 223 q 877 336 866 295 q 889 464 889 377 l 889 1003 l 1139 1003 l 1139 437 q 1008 91 1139 209 q 625 -26 878 -26 q 243 91 373 -26 q 113 437 113 209 l 113 1003 l 363 1003 m 578 1104 l 358 1320 l 652 1320 l 755 1104 l 578 1104 "},"¢":{"x_min":45,"x_max":958,"ha":1013,"o":"m 471 179 l 471 618 q 342 547 388 604 q 296 398 296 489 q 342 248 296 307 q 471 179 389 190 m 958 328 q 844 106 947 194 q 573 3 741 19 l 573 -143 l 458 -143 l 458 0 q 153 121 262 16 q 45 398 45 227 q 155 675 45 569 q 458 796 265 782 l 458 926 l 573 926 l 573 797 q 834 707 736 788 q 950 485 933 625 l 694 485 q 648 575 684 542 q 553 615 613 609 l 553 180 q 654 231 617 193 q 696 328 690 269 l 958 328 "},"Ş":{"x_min":71,"x_max":1123,"ha":1193,"o":"m 71 348 l 328 348 l 328 338 q 402 209 328 253 q 619 165 477 165 q 789 197 729 165 q 849 288 849 229 q 809 361 849 337 q 651 396 770 384 l 473 414 q 186 502 278 434 q 95 695 95 571 q 227 936 95 843 q 578 1029 360 1029 q 945 941 812 1029 q 1078 702 1078 854 l 1078 694 l 828 694 q 757 806 819 769 q 582 844 696 844 q 418 813 476 844 q 360 728 360 783 q 394 664 360 684 q 562 629 428 644 l 748 609 q 1032 517 941 588 q 1123 315 1123 445 q 987 61 1123 148 q 589 -26 851 -26 q 205 65 339 -26 q 71 326 71 157 l 71 348 m 396 -276 l 419 -213 q 505 -231 468 -225 q 574 -238 542 -238 q 623 -225 606 -238 q 641 -188 641 -212 q 626 -157 641 -169 q 588 -145 611 -145 q 568 -147 580 -145 q 540 -153 557 -149 l 498 -126 l 564 0 l 655 0 l 605 -82 q 636 -77 621 -79 q 667 -76 652 -76 q 753 -106 721 -76 q 785 -188 785 -137 q 740 -284 785 -253 q 604 -315 696 -315 q 511 -305 562 -315 q 396 -276 460 -295 "},"é":{"x_min":45,"x_max":945,"ha":990,"o":"m 313 470 l 687 469 q 630 579 680 539 q 500 619 580 619 q 369 578 420 619 q 313 470 319 538 m 932 243 q 771 44 885 114 q 494 -26 658 -26 q 166 82 287 -26 q 45 375 45 190 q 165 667 45 560 q 494 775 286 775 q 828 663 711 775 q 945 345 945 551 l 945 314 l 306 314 q 359 183 308 231 q 494 135 410 135 q 607 163 560 135 q 676 243 655 191 l 932 243 m 390 850 l 492 1066 l 787 1066 l 566 850 l 390 850 "},"B":{"x_min":113,"x_max":1138,"ha":1189,"o":"m 662 808 l 365 808 l 365 601 l 662 601 q 799 624 762 601 q 837 703 837 647 q 796 783 837 759 q 662 808 756 808 m 365 200 l 699 200 q 837 224 800 200 q 874 309 874 248 q 833 397 874 370 q 699 425 792 425 l 365 425 l 365 200 m 113 0 l 113 1003 l 761 1003 q 1014 940 930 1003 q 1099 752 1099 877 q 1064 623 1099 679 q 962 532 1029 567 q 1093 442 1049 504 q 1138 285 1138 379 q 1051 76 1138 152 q 811 0 964 0 l 113 0 "},"…":{"x_min":100,"x_max":1287,"ha":1389,"o":"m 100 0 l 100 241 l 361 241 l 361 0 l 100 0 m 562 0 l 562 241 l 823 241 l 823 0 l 562 0 m 1026 0 l 1026 241 l 1287 241 l 1287 0 l 1026 0 "},"H":{"x_min":113,"x_max":1096,"ha":1209,"o":"m 113 0 l 113 1003 l 365 1003 l 365 626 l 846 626 l 846 1003 l 1096 1003 l 1096 0 l 846 0 l 846 416 l 365 416 l 365 0 l 113 0 "},"î":{"x_min":-115,"x_max":566,"ha":450,"o":"m 110 0 l 110 749 l 341 749 l 341 0 l 110 0 m 354 1066 l 566 850 l 325 850 l 225 953 l 125 850 l -115 850 l 96 1066 l 354 1066 "},"−":{"x_min":172,"x_max":984,"ha":1157,"o":"m 172 484 l 984 484 l 984 346 l 172 346 l 172 484 "},"≠":{"x_min":172,"x_max":984,"ha":1157,"o":"m 811 836 l 912 756 l 807 626 l 984 626 l 984 496 l 720 496 l 590 334 l 984 334 l 984 203 l 504 203 l 338 -6 l 238 74 l 342 203 l 172 203 l 172 334 l 427 334 l 556 496 l 172 496 l 172 626 l 643 626 l 811 836 "},"¥":{"x_min":-38,"x_max":1044,"ha":1013,"o":"m 1044 978 l 806 665 l 973 665 l 973 582 l 739 582 l 667 489 l 973 489 l 973 406 l 611 406 l 611 0 l 389 0 l 389 406 l 30 406 l 30 489 l 335 489 l 262 582 l 30 582 l 30 665 l 200 665 l -38 978 l 265 978 l 512 617 l 760 978 l 1044 978 "},"U":{"x_min":113,"x_max":1139,"ha":1253,"o":"m 363 1003 l 363 464 q 425 249 363 316 q 625 182 487 182 q 752 202 698 182 q 840 264 806 223 q 877 336 866 295 q 889 464 889 377 l 889 1003 l 1139 1003 l 1139 437 q 1008 91 1139 209 q 625 -26 878 -26 q 243 91 373 -26 q 113 437 113 209 l 113 1003 l 363 1003 "},"Ñ":{"x_min":113,"x_max":1164,"ha":1276,"o":"m 113 0 l 113 1003 l 421 1003 l 923 295 l 923 1003 l 1164 1003 l 1164 0 l 858 0 l 353 714 l 353 0 l 113 0 m 335 1110 l 335 1128 q 384 1263 335 1211 q 510 1315 433 1315 q 633 1290 561 1315 q 727 1265 705 1265 q 766 1277 751 1265 q 783 1311 780 1290 l 944 1312 l 944 1294 q 894 1158 944 1211 q 768 1106 844 1106 q 645 1131 717 1106 q 551 1156 573 1156 q 512 1144 527 1156 q 496 1110 498 1133 l 335 1110 "},"F":{"x_min":113,"x_max":968,"ha":1003,"o":"m 113 0 l 113 1003 l 968 1003 l 968 800 l 365 800 l 365 607 l 917 607 l 917 404 l 365 404 l 365 0 l 113 0 "},"*":{"x_min":86,"x_max":685,"ha":772,"o":"m 385 615 l 270 459 l 156 542 l 270 699 l 86 758 l 130 893 l 315 834 l 315 1029 l 457 1029 l 457 834 l 641 893 l 685 758 l 499 699 l 615 542 l 499 459 l 385 615 "},"†":{"x_min":132,"x_max":978,"ha":1109,"o":"m 439 -212 l 439 528 l 132 528 l 132 733 l 439 733 l 439 1003 l 671 1003 l 671 733 l 978 733 l 978 528 l 671 528 l 671 -212 l 439 -212 "},"∕":{"x_min":-296,"x_max":594,"ha":298,"o":"m -296 -26 l 435 1003 l 594 1003 l -138 -26 l -296 -26 "},"°":{"x_min":24,"x_max":435,"ha":457,"o":"m 230 906 q 145 871 180 906 q 110 787 110 836 q 144 702 110 737 q 230 668 179 668 q 314 703 279 668 q 349 787 349 738 q 314 871 349 836 q 230 906 279 906 m 229 993 q 374 932 314 993 q 435 786 435 871 q 374 641 435 701 q 228 581 314 581 q 83 640 142 581 q 24 786 24 700 q 84 932 24 872 q 229 993 144 993 "},"å":{"x_min":62,"x_max":973,"ha":1035,"o":"m 487 961 q 505 917 487 934 q 554 901 524 901 q 603 917 584 901 q 622 961 622 934 q 603 1005 622 989 q 554 1022 585 1022 q 505 1005 523 1022 q 487 961 487 989 m 359 961 q 410 1065 359 1027 q 553 1103 462 1103 q 697 1065 645 1103 q 750 961 750 1027 q 698 857 750 895 q 553 820 646 820 q 410 857 462 820 q 359 961 359 895 m 712 361 q 545 325 668 337 q 523 323 530 323 q 357 289 392 309 q 323 228 323 270 q 357 159 323 185 q 448 133 391 133 q 640 189 566 133 q 714 335 714 245 q 713 352 714 346 q 712 361 713 357 m 938 121 q 946 53 938 77 q 973 17 954 30 l 973 0 l 718 0 l 706 82 q 570 0 646 26 q 394 -26 494 -26 q 150 41 239 -26 q 62 223 62 108 q 142 382 62 329 q 416 451 222 434 q 488 455 442 453 q 712 541 712 471 q 669 605 712 584 q 539 626 626 626 q 412 596 452 626 q 370 503 371 566 l 128 502 l 128 505 q 237 705 128 636 q 553 775 346 775 q 733 755 655 775 q 864 695 811 735 q 921 619 904 665 q 938 479 938 572 l 938 121 "},"0":{"x_min":54,"x_max":958,"ha":1013,"o":"m 298 489 q 352 255 298 336 q 507 174 406 174 q 660 255 606 174 q 714 489 714 336 q 660 722 714 641 q 507 804 606 804 q 352 722 406 804 q 298 489 298 640 m 54 489 q 171 868 54 733 q 503 1003 289 1003 q 839 869 721 1003 q 958 489 958 735 q 839 108 958 242 q 503 -26 721 -26 q 172 109 290 -26 q 54 489 54 244 "},"":{"x_min":77,"x_max":1021,"ha":1097,"o":"m 567 824 q 566 834 566 828 q 565 849 565 839 q 630 1005 565 934 q 790 1094 694 1077 q 791 1079 791 1087 q 791 1052 791 1070 q 721 893 791 963 q 583 823 651 823 l 578 823 q 573 824 576 823 q 567 824 570 824 m 1021 273 q 881 40 943 105 q 743 -24 820 -24 q 654 -1 709 -24 q 571 20 599 20 q 482 -1 540 20 q 396 -24 424 -24 q 309 5 353 -24 q 221 95 265 35 q 114 295 152 190 q 77 499 77 401 q 161 741 77 648 q 380 835 246 835 q 485 811 426 835 q 570 788 544 788 q 652 812 593 788 q 755 836 711 836 q 890 809 830 836 q 999 725 949 782 q 896 626 930 680 q 863 502 863 571 q 903 366 863 425 q 1021 273 944 307 "},"”":{"x_min":97.421875,"x_max":727,"ha":840,"o":"m 109 762 l 109 1003 l 369 1003 l 369 840 q 344 691 369 756 q 264 557 320 626 l 97 557 q 168 666 146 618 q 191 757 191 713 l 191 762 l 109 762 m 467 762 l 467 1003 l 727 1003 l 727 840 q 702 691 727 756 q 623 557 678 626 l 456 557 q 528 667 506 619 q 551 757 551 714 l 551 762 l 467 762 "},"ö":{"x_min":45,"x_max":990,"ha":1035,"o":"m 296 373 q 356 215 296 274 q 518 157 417 157 q 678 216 618 157 q 739 375 739 275 q 679 532 739 473 q 518 591 619 591 q 356 531 417 591 q 296 373 296 472 m 45 375 q 171 667 45 560 q 518 775 297 775 q 863 667 737 775 q 990 375 990 560 q 863 81 990 189 q 518 -26 737 -26 q 172 81 299 -26 q 45 375 45 189 m 811 868 l 589 868 l 589 1047 l 811 1047 l 811 868 m 449 868 l 227 868 l 227 1047 l 449 1047 l 449 868 "},"Õ":{"x_min":58,"x_max":1260,"ha":1320,"o":"m 659 181 q 896 266 810 181 q 983 501 983 352 q 896 737 983 651 q 659 823 810 823 q 422 736 509 823 q 335 501 335 650 q 421 266 335 352 q 659 181 508 181 m 58 501 q 221 885 58 741 q 659 1029 384 1029 q 1097 885 934 1029 q 1260 501 1260 741 q 1097 117 1260 260 q 659 -26 934 -26 q 221 117 384 -26 q 58 501 58 260 m 356 1110 l 356 1128 q 405 1263 356 1211 q 531 1315 454 1315 q 654 1290 582 1315 q 748 1265 726 1265 q 787 1277 772 1265 q 804 1311 801 1290 l 965 1312 l 965 1294 q 915 1158 965 1211 q 789 1106 865 1106 q 666 1131 738 1106 q 572 1156 594 1156 q 533 1144 548 1156 q 517 1110 519 1133 l 356 1110 "},"ć":{"x_min":45,"x_max":958,"ha":1000,"o":"m 958 305 q 821 65 946 157 q 501 -26 695 -26 q 170 83 295 -26 q 45 375 45 193 q 171 667 45 560 q 518 775 297 775 q 819 693 708 775 q 950 461 931 612 l 694 461 q 635 561 684 526 q 503 596 586 596 q 352 535 409 596 q 296 373 296 474 q 352 212 296 272 q 504 153 409 153 q 637 195 584 153 q 696 305 690 237 l 958 305 m 389 850 l 491 1066 l 786 1066 l 565 850 l 389 850 "},"þ":{"x_min":98,"x_max":1018,"ha":1064,"o":"m 329 373 q 388 218 329 276 q 548 161 448 161 q 708 218 649 161 q 768 374 768 275 q 708 529 768 472 q 548 587 648 587 q 388 528 448 587 q 329 373 329 470 m 98 -264 l 98 1003 l 329 1003 l 329 673 q 441 744 375 721 q 594 768 507 768 q 900 658 782 768 q 1018 374 1018 548 q 900 88 1018 197 q 590 -20 782 -20 q 440 4 505 -20 q 329 77 376 28 l 329 -264 l 98 -264 "},"]":{"x_min":35,"x_max":477,"ha":611,"o":"m 477 1003 l 477 -283 l 35 -283 l 35 -90 l 242 -90 l 242 810 l 35 810 l 35 1003 l 477 1003 "},"8":{"x_min":53,"x_max":960,"ha":1013,"o":"m 325 698 q 371 621 325 648 q 505 595 417 595 q 639 621 593 595 q 686 698 686 647 q 639 776 686 749 q 505 804 593 804 q 371 776 417 804 q 325 698 325 749 m 301 298 q 352 209 301 239 q 505 179 404 179 q 658 209 606 179 q 710 298 710 239 q 656 389 710 357 q 505 421 603 421 q 353 389 406 421 q 301 298 301 357 m 211 533 q 114 607 145 561 q 84 726 84 653 q 196 929 84 855 q 505 1004 308 1004 q 816 929 703 1004 q 929 726 929 854 q 898 607 929 653 q 801 533 867 561 q 922 433 884 490 q 960 294 960 376 q 839 59 960 144 q 505 -26 719 -26 q 172 59 292 -26 q 53 294 53 144 q 90 433 53 376 q 211 533 128 490 "},"R":{"x_min":113,"x_max":1132.203125,"ha":1189,"o":"m 365 575 l 649 575 q 807 602 761 575 q 853 693 853 629 q 810 778 853 754 q 638 803 767 803 l 365 803 l 365 575 m 113 0 l 113 1003 l 729 1003 q 1025 937 930 1003 q 1120 733 1120 871 q 1075 577 1120 645 q 953 479 1031 509 q 1046 410 1019 451 q 1078 265 1073 369 q 1079 238 1078 255 q 1132 0 1087 51 l 850 0 q 835 35 840 16 q 830 78 830 55 l 830 145 q 794 327 830 284 q 655 370 758 370 l 649 370 l 365 370 l 365 0 l 113 0 "},"o":{"x_min":45,"x_max":990,"ha":1035,"o":"m 296 373 q 356 215 296 274 q 518 157 417 157 q 678 216 618 157 q 739 375 739 275 q 679 532 739 473 q 518 591 619 591 q 356 531 417 591 q 296 373 296 472 m 45 375 q 171 667 45 560 q 518 775 297 775 q 863 667 737 775 q 990 375 990 560 q 863 81 990 189 q 518 -26 737 -26 q 172 81 299 -26 q 45 375 45 189 "},"5":{"x_min":54,"x_max":922,"ha":1013,"o":"m 54 292 l 313 292 q 366 204 323 234 q 483 175 409 175 q 622 218 571 175 q 674 334 674 261 q 623 451 674 408 q 487 494 573 494 q 389 472 432 494 q 317 409 346 450 l 78 409 l 185 978 l 866 978 l 866 774 l 362 774 l 333 625 q 439 673 384 657 q 553 689 494 689 q 821 597 721 689 q 922 354 922 506 q 806 74 922 175 q 485 -26 690 -26 q 181 57 294 -26 q 54 292 67 141 "},"õ":{"x_min":45,"x_max":990,"ha":1035,"o":"m 296 373 q 356 215 296 274 q 518 157 417 157 q 678 216 618 157 q 739 375 739 275 q 679 532 739 473 q 518 591 619 591 q 356 531 417 591 q 296 373 296 472 m 45 375 q 171 667 45 560 q 518 775 297 775 q 863 667 737 775 q 990 375 990 560 q 863 81 990 189 q 518 -26 737 -26 q 172 81 299 -26 q 45 375 45 189 m 214 856 l 214 874 q 263 1009 214 957 q 389 1061 312 1061 q 512 1036 440 1061 q 606 1011 584 1011 q 645 1023 630 1011 q 662 1057 659 1036 l 823 1058 l 823 1040 q 773 904 823 957 q 647 852 723 852 q 524 877 596 852 q 430 902 452 902 q 391 890 406 902 q 375 856 377 879 l 214 856 "},",":{"x_min":110.734375,"x_max":381,"ha":507,"o":"m 121 0 l 121 241 l 381 241 l 381 77 q 357 -71 381 -6 q 277 -205 333 -135 l 110 -205 q 183 -93 161 -140 q 205 -4 205 -47 l 205 0 l 121 0 "},"d":{"x_min":46,"x_max":966,"ha":1064,"o":"m 734 365 q 674 519 734 461 q 515 578 614 578 q 355 520 414 578 q 296 364 296 462 q 355 208 296 266 q 515 151 415 151 q 674 209 614 151 q 734 365 734 268 m 734 661 l 734 1003 l 966 1003 l 966 0 l 734 0 l 734 69 q 621 -1 685 21 q 468 -25 556 -25 q 163 84 281 -25 q 46 366 46 193 q 163 649 46 541 q 473 758 281 758 q 623 733 558 758 q 734 661 688 709 "},"\"":{"x_min":53,"x_max":406,"ha":460,"o":"m 275 975 l 406 975 l 406 596 l 275 596 l 275 975 m 53 975 l 184 975 l 184 596 l 53 596 l 53 975 "},"˙":{"x_min":260,"x_max":436,"ha":694,"o":"m 260 873 l 260 1041 l 436 1041 l 436 873 l 260 873 "},"ê":{"x_min":45,"x_max":945,"ha":990,"o":"m 313 470 l 687 469 q 630 579 680 539 q 500 619 580 619 q 369 578 420 619 q 313 470 319 538 m 932 243 q 771 44 885 114 q 494 -26 658 -26 q 166 82 287 -26 q 45 375 45 190 q 165 667 45 560 q 494 775 286 775 q 828 663 711 775 q 945 345 945 551 l 945 314 l 306 314 q 359 183 308 231 q 494 135 410 135 q 607 163 560 135 q 676 243 655 191 l 932 243 m 648 1066 l 860 850 l 619 850 l 519 953 l 419 850 l 179 850 l 390 1066 l 648 1066 "},"„":{"x_min":97.421875,"x_max":727,"ha":840,"o":"m 109 0 l 109 241 l 369 241 l 369 77 q 344 -71 369 -6 q 264 -205 320 -135 l 97 -205 q 169 -95 147 -142 q 191 -4 191 -47 l 191 0 l 109 0 m 467 0 l 467 241 l 727 241 l 727 77 q 703 -71 727 -6 q 623 -205 679 -135 l 456 -205 q 529 -93 507 -140 q 551 -4 551 -47 l 551 0 l 467 0 "},"Â":{"x_min":-49,"x_max":1125,"ha":1076,"o":"m 398 415 l 663 415 l 528 724 l 398 415 m -49 0 l 426 1003 l 667 1003 l 1125 0 l 845 0 l 754 212 l 312 212 l 222 0 l -49 0 m 675 1320 l 887 1104 l 646 1104 l 546 1207 l 446 1104 l 206 1104 l 417 1320 l 675 1320 "},"Í":{"x_min":112,"x_max":509,"ha":482,"o":"m 115 0 l 115 1003 l 367 1003 l 367 0 l 115 0 m 112 1104 l 214 1320 l 509 1320 l 288 1104 l 112 1104 "},"´":{"x_min":218,"x_max":615,"ha":694,"o":"m 218 850 l 320 1066 l 615 1066 l 394 850 l 218 850 "},"Ú":{"x_min":113,"x_max":1139,"ha":1253,"o":"m 363 1003 l 363 464 q 425 249 363 316 q 625 182 487 182 q 752 202 698 182 q 840 264 806 223 q 877 336 866 295 q 889 464 889 377 l 889 1003 l 1139 1003 l 1139 437 q 1008 91 1139 209 q 625 -26 878 -26 q 243 91 373 -26 q 113 437 113 209 l 113 1003 l 363 1003 m 497 1104 l 599 1320 l 894 1320 l 673 1104 l 497 1104 "},"Ý":{"x_min":-74,"x_max":1061,"ha":987,"o":"m 364 0 l 364 427 l -74 1003 l 245 1003 l 495 644 l 743 1003 l 1061 1003 l 615 427 l 615 0 l 364 0 m 365 1104 l 467 1320 l 762 1320 l 541 1104 l 365 1104 "},"Ω":{"x_min":37.046875,"x_max":1029.15625,"ha":1068,"o":"m 831 174 l 1029 174 l 1029 0 l 617 0 l 617 197 q 746 344 701 255 q 791 545 791 434 q 722 762 791 683 q 532 841 653 841 q 343 762 412 841 q 275 545 275 683 q 319 344 275 434 q 449 197 364 255 l 449 0 l 37 0 l 37 174 l 234 174 q 107 350 148 255 q 66 555 66 444 q 193 895 66 767 q 532 1023 321 1023 q 872 895 744 1023 q 1000 555 1000 767 q 958 350 1000 444 q 831 174 917 255 "},"Ö":{"x_min":58,"x_max":1260,"ha":1320,"o":"m 659 181 q 896 266 810 181 q 983 501 983 352 q 896 737 983 651 q 659 823 810 823 q 422 736 509 823 q 335 501 335 650 q 421 266 335 352 q 659 181 508 181 m 58 501 q 221 885 58 741 q 659 1029 384 1029 q 1097 885 934 1029 q 1260 501 1260 741 q 1097 117 1260 260 q 659 -26 934 -26 q 221 117 384 -26 q 58 501 58 260 m 953 1122 l 731 1122 l 731 1301 l 953 1301 l 953 1122 m 591 1122 l 369 1122 l 369 1301 l 591 1301 l 591 1122 "},"z":{"x_min":46,"x_max":842,"ha":888,"o":"m 46 0 l 46 180 l 515 570 l 79 570 l 79 749 l 827 749 l 827 570 l 351 180 l 842 180 l 842 0 l 46 0 "},"™":{"x_min":141,"x_max":981,"ha":1157,"o":"m 545 991 l 678 991 l 764 765 l 847 991 l 981 991 l 981 620 l 889 620 l 889 898 l 785 620 l 744 620 l 637 898 l 637 620 l 545 620 l 545 991 m 141 991 l 470 991 l 470 915 l 356 915 l 356 620 l 255 620 l 255 915 l 141 915 l 141 991 "},"ã":{"x_min":62,"x_max":973,"ha":1035,"o":"m 711 361 q 545 325 668 337 q 523 323 530 323 q 357 289 392 309 q 323 228 323 270 q 357 159 323 185 q 448 133 391 133 q 640 189 566 133 q 714 335 714 245 q 713 352 714 346 q 711 361 713 357 m 938 121 q 946 53 938 77 q 973 17 954 30 l 973 0 l 718 0 l 706 82 q 570 0 646 26 q 394 -26 494 -26 q 150 41 239 -26 q 62 223 62 108 q 142 382 62 329 q 416 451 222 434 q 488 455 442 453 q 712 541 712 471 q 669 605 712 584 q 539 626 626 626 q 412 596 452 626 q 370 503 371 566 l 128 502 l 128 505 q 237 705 128 636 q 553 775 346 775 q 733 755 655 775 q 864 695 811 735 q 921 619 904 665 q 938 479 938 572 l 938 121 m 255 856 l 255 874 q 304 1009 255 957 q 430 1061 353 1061 q 553 1036 481 1061 q 647 1011 625 1011 q 686 1023 671 1011 q 703 1057 700 1036 l 864 1058 l 864 1040 q 814 904 864 957 q 688 852 764 852 q 565 877 637 852 q 471 902 493 902 q 432 890 447 902 q 416 856 418 879 l 255 856 "},"æ":{"x_min":62,"x_max":1578,"ha":1624,"o":"m 945 473 l 1321 473 q 1263 581 1313 542 q 1132 620 1213 620 q 1002 581 1052 620 q 945 473 952 542 m 770 118 q 616 9 707 44 q 399 -26 525 -26 q 151 40 241 -26 q 62 223 62 106 q 142 382 62 329 q 416 451 222 434 q 494 456 444 453 q 712 540 712 470 q 669 604 712 582 q 539 626 625 626 q 411 596 452 626 q 370 503 371 567 l 128 502 l 128 509 q 236 704 128 634 q 541 775 345 775 q 721 757 643 775 q 849 704 798 739 q 973 757 902 739 q 1127 775 1043 775 q 1461 665 1345 775 q 1578 349 1578 555 l 1578 322 l 938 322 q 989 191 938 240 q 1127 142 1041 142 q 1241 169 1194 142 q 1310 247 1289 196 l 1565 247 q 1404 44 1518 115 q 1127 -26 1291 -26 q 921 9 1009 -26 q 770 118 833 45 m 711 355 q 544 319 669 331 q 523 317 530 317 q 357 283 392 303 q 323 222 323 264 q 357 152 323 179 q 448 125 392 125 q 640 181 566 125 q 714 329 714 238 q 713 345 714 339 q 711 355 713 350 "},"É":{"x_min":113,"x_max":1003,"ha":1054,"o":"m 113 0 l 113 1003 l 1003 1003 l 1003 800 l 365 800 l 365 631 l 933 631 l 933 427 l 365 427 l 365 211 l 1003 211 l 1003 0 l 113 0 m 428 1104 l 530 1320 l 825 1320 l 604 1104 l 428 1104 "},"~":{"x_min":121,"x_max":1038,"ha":1157,"o":"m 1038 543 l 1038 393 q 904 323 967 346 q 780 301 841 301 q 718 306 749 301 q 656 321 687 311 q 607 338 639 327 q 382 389 459 389 q 261 363 324 389 q 121 282 199 338 l 121 433 q 259 505 193 481 q 383 529 325 529 q 580 490 462 529 l 583 489 q 620 476 595 485 q 783 440 726 440 q 902 464 841 440 q 1038 543 963 489 "},"³":{"x_min":29,"x_max":626,"ha":668,"o":"m 29 597 l 194 597 l 194 592 q 227 518 194 542 q 330 494 261 494 q 427 513 395 494 q 459 570 459 532 q 425 624 459 608 q 308 640 392 640 q 283 639 292 640 q 267 638 274 639 l 266 750 q 282 749 272 750 q 298 749 293 749 q 410 763 378 749 q 443 813 443 778 q 412 863 443 845 q 325 881 381 881 q 235 859 264 881 q 206 790 206 837 l 206 788 l 43 788 q 122 938 46 885 q 334 991 197 991 q 533 948 462 991 q 604 829 604 905 q 581 755 604 785 q 513 704 559 725 q 597 650 569 685 q 626 563 626 615 q 542 426 626 477 q 314 375 458 375 q 103 430 178 375 q 29 588 29 486 l 29 597 "},"¡":{"x_min":117.9375,"x_max":378.71875,"ha":498,"o":"m 334 696 l 378 229 l 378 0 l 117 0 l 117 229 l 164 696 l 334 696 m 376 1003 l 376 762 l 122 762 l 122 1003 l 376 1003 "},"[":{"x_min":135,"x_max":575,"ha":611,"o":"m 135 -283 l 135 1003 l 575 1003 l 575 810 l 370 810 l 370 -90 l 575 -90 l 575 -283 l 135 -283 "},"%":{"x_min":45,"x_max":1235,"ha":1278,"o":"m 856 235 q 884 130 856 167 q 963 93 912 93 q 1043 129 1016 93 q 1071 235 1071 166 q 1043 342 1071 305 q 963 380 1015 380 q 884 342 912 380 q 856 235 856 304 m 692 236 q 762 430 692 361 q 961 499 833 499 q 1163 430 1092 499 q 1235 236 1235 361 q 1163 42 1235 111 q 961 -26 1092 -26 q 762 42 833 -26 q 692 236 692 111 m 196 -26 l 926 1003 l 1084 1003 l 353 -26 l 196 -26 m 209 739 q 237 634 209 671 q 317 597 265 597 q 396 633 368 597 q 424 739 424 670 q 396 846 424 809 q 317 884 368 884 q 237 846 265 884 q 209 739 209 808 m 45 740 q 115 933 45 864 q 315 1003 186 1003 q 517 934 446 1003 q 588 740 588 865 q 517 546 588 615 q 315 478 446 478 q 115 546 186 478 q 45 740 45 615 "},"P":{"x_min":113,"x_max":1078,"ha":1116,"o":"m 365 517 l 595 517 q 773 549 722 517 q 824 657 824 581 q 779 766 824 735 q 611 798 735 798 l 365 798 l 365 517 m 113 0 l 113 1003 l 707 1003 q 980 912 882 1003 q 1078 661 1078 821 q 980 410 1078 500 q 707 321 882 321 l 365 321 l 365 0 l 113 0 "},"∏":{"x_min":102,"x_max":989,"ha":1093,"o":"m 102 999 l 989 999 l 989 -266 l 756 -266 l 756 803 l 335 803 l 335 -266 l 102 -266 l 102 999 "},"_":{"x_min":0,"x_max":694,"ha":694,"o":"m 0 -190 l 694 -190 l 694 -328 l 0 -328 l 0 -190 "},"ñ":{"x_min":94,"x_max":937,"ha":1029,"o":"m 94 0 l 94 749 l 326 749 l 326 636 q 460 734 387 701 q 617 768 534 768 q 783 736 711 768 q 892 648 854 705 q 926 563 916 612 q 937 412 937 515 l 937 0 l 705 0 l 705 362 q 668 535 705 488 q 542 582 632 582 q 383 525 441 582 q 326 369 326 468 l 326 0 l 94 0 m 211 856 l 211 874 q 260 1009 211 957 q 386 1061 309 1061 q 509 1036 437 1061 q 603 1011 581 1011 q 642 1023 627 1011 q 659 1057 656 1036 l 820 1058 l 820 1040 q 770 904 820 957 q 644 852 720 852 q 521 877 593 852 q 427 902 449 902 q 388 890 403 902 q 372 856 374 879 l 211 856 "},"‚":{"x_min":97.0625,"x_max":370,"ha":482,"o":"m 109 0 l 109 241 l 370 241 l 370 77 q 345 -70 370 -5 q 264 -205 321 -134 l 97 -205 q 169 -93 147 -140 q 192 -4 192 -47 l 192 0 l 109 0 "},"Æ":{"x_min":-43,"x_max":1616,"ha":1668,"o":"m 459 415 l 733 415 l 733 800 l 663 800 l 459 415 m -43 0 l 491 1003 l 1616 1003 l 1616 800 l 978 800 l 978 631 l 1548 631 l 1548 427 l 978 427 l 978 212 l 1616 212 l 1616 0 l 733 0 l 733 212 l 347 212 l 237 0 l -43 0 "},"₣":{"x_min":113,"x_max":1621,"ha":1619,"o":"m 113 0 l 113 1003 l 968 1003 l 968 800 l 365 800 l 365 607 l 917 607 l 917 404 l 365 404 l 365 0 l 113 0 m 1329 0 l 1097 0 l 1097 749 l 1329 749 l 1329 649 q 1437 744 1381 713 q 1555 775 1494 775 q 1602 771 1568 775 q 1621 769 1614 770 l 1621 572 q 1594 574 1609 573 q 1547 575 1579 575 q 1387 511 1445 575 q 1329 334 1329 447 l 1329 0 "},"ğ":{"x_min":46,"x_max":966,"ha":1064,"o":"m 734 400 q 674 545 734 491 q 515 600 615 600 q 355 545 414 600 q 296 400 296 491 q 355 254 296 308 q 515 200 414 200 q 674 254 615 200 q 734 400 734 308 m 966 133 q 947 -52 966 3 q 883 -150 928 -107 q 728 -236 819 -208 q 508 -264 637 -264 q 210 -201 310 -264 q 109 -16 109 -139 l 109 -4 l 342 -4 q 383 -75 342 -51 q 509 -99 424 -99 q 684 -61 635 -99 q 734 71 734 -23 l 734 122 q 623 54 687 76 q 474 32 559 32 q 164 133 282 32 q 46 400 46 235 q 163 666 46 563 q 470 770 281 770 q 622 748 558 770 q 734 680 686 726 l 734 749 l 966 749 l 966 133 m 824 1074 q 736 905 815 968 q 531 842 657 842 q 325 905 404 842 q 238 1074 246 968 l 405 1074 q 447 1017 414 1037 q 531 997 480 997 q 614 1017 581 997 q 657 1074 647 1037 l 824 1074 "},"ª":{"x_min":47,"x_max":729,"ha":777,"o":"m 532 731 q 417 707 502 716 q 391 704 401 705 q 266 680 291 694 q 242 638 242 667 q 267 590 242 608 q 335 572 292 572 q 479 611 424 572 q 535 714 535 650 q 534 725 535 721 q 532 731 533 729 m 703 563 q 709 515 703 532 q 729 489 715 499 l 729 479 l 537 479 l 528 536 q 426 479 483 497 q 294 461 369 461 q 113 507 179 461 q 47 634 47 554 q 106 746 47 709 q 310 794 166 783 q 367 798 331 796 q 532 858 532 809 q 501 903 532 888 q 404 918 469 918 q 309 896 339 918 q 277 831 278 875 l 97 831 l 97 832 q 178 973 97 924 q 414 1022 260 1022 q 549 1008 491 1022 q 647 966 608 994 q 690 912 677 945 q 703 813 703 880 l 703 563 "},"Œ":{"x_min":58,"x_max":1793,"ha":1845,"o":"m 903 311 l 903 691 q 788 790 851 758 q 648 823 725 823 q 420 735 506 823 q 335 501 335 648 q 420 268 335 355 q 648 181 506 181 q 788 213 725 181 q 903 311 852 245 m 903 1003 l 1793 1003 l 1793 800 l 1153 800 l 1153 631 l 1724 631 l 1724 427 l 1153 427 l 1153 211 l 1793 211 l 1793 0 l 903 0 l 903 68 q 781 -1 860 22 q 594 -26 701 -26 q 203 116 348 -26 q 58 501 58 259 q 203 886 58 743 q 596 1029 349 1029 q 773 1003 697 1029 q 903 927 850 978 l 903 1003 "},"T":{"x_min":-7,"x_max":929,"ha":922,"o":"m 586 800 l 586 0 l 336 0 l 336 800 l -7 800 l -7 1003 l 929 1003 l 929 800 l 586 800 "},"š":{"x_min":66,"x_max":921,"ha":987,"o":"m 66 245 l 311 245 q 365 163 316 188 q 520 139 414 139 q 637 159 593 139 q 681 212 681 179 q 656 254 681 241 q 551 273 631 266 l 341 291 q 157 363 225 301 q 90 520 90 425 q 194 709 90 644 q 497 775 299 775 q 792 710 685 775 q 899 530 899 645 l 899 524 l 667 524 q 614 597 658 573 q 485 622 569 622 q 374 603 414 622 q 335 553 335 585 q 374 506 335 523 q 508 483 413 490 l 671 470 q 856 403 791 461 q 921 247 921 345 q 814 43 921 113 q 500 -26 707 -26 q 183 42 292 -26 q 66 245 73 110 m 365 850 l 154 1066 l 394 1066 l 494 962 l 594 1066 l 835 1066 l 623 850 l 365 850 "},"Þ":{"x_min":113,"x_max":1078,"ha":1116,"o":"m 365 366 l 595 366 q 773 397 722 366 q 824 505 824 429 q 779 616 824 585 q 611 648 734 648 l 365 648 l 365 366 m 113 0 l 113 1003 l 365 1003 l 365 853 l 707 853 q 980 762 882 853 q 1078 511 1078 672 q 980 260 1078 350 q 707 170 882 170 l 365 170 l 365 0 l 113 0 "},"j":{"x_min":-42,"x_max":340,"ha":450,"o":"m 109 749 l 340 749 l 340 26 q 327 -113 340 -71 q 287 -187 315 -156 q 199 -246 250 -228 q 71 -264 149 -264 l -42 -264 l -42 -69 l 0 -69 q 83 -45 57 -69 q 109 30 109 -22 l 109 749 m 340 824 l 109 824 l 109 1004 l 340 1004 l 340 824 "},"1":{"x_min":172,"x_max":673,"ha":1013,"o":"m 437 0 l 437 650 l 172 650 l 172 814 l 194 814 q 381 852 317 814 q 464 978 445 891 l 673 978 l 673 0 l 437 0 "},"›":{"x_min":96,"x_max":393,"ha":489,"o":"m 393 291 l 96 53 l 96 273 l 229 375 l 96 474 l 96 696 l 393 457 l 393 291 "},"<":{"x_min":179,"x_max":978,"ha":1157,"o":"m 978 809 l 978 660 l 372 413 l 978 166 l 978 18 l 179 346 l 179 481 l 978 809 "},"t":{"x_min":45,"x_max":560,"ha":585,"o":"m 154 946 l 386 946 l 386 749 l 560 749 l 560 573 l 386 573 l 386 255 q 399 167 386 181 q 462 154 412 154 l 560 154 l 560 -26 l 403 -26 q 211 16 269 -26 q 154 154 154 58 l 154 573 l 45 573 l 45 749 l 154 749 l 154 946 "},"¬":{"x_min":172,"x_max":984,"ha":1157,"o":"m 172 586 l 984 586 l 984 246 l 849 246 l 849 453 l 172 453 l 172 586 "},"ù":{"x_min":94,"x_max":937,"ha":1029,"o":"m 937 749 l 937 0 l 705 0 l 705 113 q 572 14 644 47 q 413 -18 500 -18 q 247 12 317 -18 q 138 100 177 42 q 104 184 114 136 q 94 337 94 233 l 94 749 l 326 749 l 326 386 q 362 215 326 261 q 488 169 398 169 q 647 224 589 169 q 705 379 705 280 l 705 749 l 937 749 m 467 850 l 247 1066 l 541 1066 l 644 850 l 467 850 "},"ï":{"x_min":-66,"x_max":518,"ha":450,"o":"m 110 0 l 110 749 l 341 749 l 341 0 l 110 0 m 518 868 l 296 868 l 296 1047 l 518 1047 l 518 868 m 156 868 l -66 868 l -66 1047 l 156 1047 l 156 868 "},"Ò":{"x_min":58,"x_max":1260,"ha":1320,"o":"m 659 181 q 896 266 810 181 q 983 501 983 352 q 896 737 983 651 q 659 823 810 823 q 422 736 509 823 q 335 501 335 650 q 421 266 335 352 q 659 181 508 181 m 58 501 q 221 885 58 741 q 659 1029 384 1029 q 1097 885 934 1029 q 1260 501 1260 741 q 1097 117 1260 260 q 659 -26 934 -26 q 221 117 384 -26 q 58 501 58 260 m 612 1104 l 392 1320 l 686 1320 l 789 1104 l 612 1104 "},"&":{"x_min":77,"x_max":1222.203125,"ha":1193,"o":"m 535 682 q 607 721 584 699 q 630 773 630 743 q 610 819 630 802 q 554 836 590 836 q 496 819 519 836 q 473 776 473 802 q 488 732 473 755 q 535 682 504 709 m 701 216 l 480 443 q 375 376 412 414 q 339 301 339 339 q 391 204 339 242 q 525 167 443 167 q 617 179 572 167 q 701 216 661 192 m 911 0 l 846 69 q 688 -1 779 22 q 491 -26 598 -26 q 194 61 312 -26 q 77 278 77 148 q 140 451 77 375 q 339 589 204 527 q 264 679 290 628 q 238 785 238 730 q 320 943 238 882 q 538 1004 403 1004 q 765 944 683 1004 q 848 780 848 885 q 807 647 848 703 q 675 542 766 591 l 853 368 q 876 406 868 386 q 888 448 885 426 l 1132 448 q 1081 312 1111 371 q 1011 209 1052 253 l 1222 0 l 911 0 "},"":{"x_min":-7,"x_max":1001,"ha":1013,"o":"m -1 530 l 33 611 l 131 611 q 278 900 160 797 q 582 1003 395 1003 q 858 915 749 1003 q 1001 672 968 828 l 760 672 q 692 772 736 741 q 575 804 648 804 q 445 753 497 804 q 376 611 394 703 l 762 611 l 729 530 l 368 530 q 367 514 367 523 q 367 488 367 505 q 367 463 367 471 q 368 450 367 456 l 694 450 l 660 369 l 375 369 q 446 224 393 274 q 580 174 498 174 q 693 206 649 174 q 760 307 736 238 l 1001 307 q 857 60 966 146 q 578 -26 748 -26 q 275 77 391 -26 q 131 369 158 180 l -7 369 l 26 450 l 122 450 q 121 468 122 456 q 121 487 121 481 q 121 508 121 494 q 122 530 122 523 l -1 530 "},"˝":{"x_min":191,"x_max":665,"ha":694,"o":"m 269 1063 l 437 1063 l 265 850 l 191 850 l 269 1063 m 387 850 l 492 1063 l 665 1063 l 467 850 l 387 850 "},"I":{"x_min":115,"x_max":367,"ha":482,"o":"m 115 0 l 115 1003 l 367 1003 l 367 0 l 115 0 "},"G":{"x_min":58,"x_max":1223,"ha":1328,"o":"m 1015 112 q 851 8 943 43 q 644 -26 760 -26 q 425 6 528 -26 q 245 98 321 39 q 104 272 150 173 q 58 501 58 371 q 221 885 58 741 q 659 1029 384 1029 q 1046 925 891 1029 q 1223 656 1200 822 l 950 656 q 843 781 915 739 q 659 823 771 823 q 422 736 509 823 q 335 501 335 650 q 421 266 335 352 q 659 181 508 181 q 839 224 762 181 q 953 346 917 268 l 725 346 l 725 546 l 1220 546 l 1220 0 l 1029 0 l 1015 112 "},"`":{"x_min":79,"x_max":476,"ha":694,"o":"m 299 850 l 79 1066 l 373 1066 l 476 850 l 299 850 "},"·":{"x_min":102,"x_max":404,"ha":507,"o":"m 102 489 q 145 596 102 552 q 253 640 189 640 q 359 596 315 640 q 404 489 404 552 q 359 381 404 425 q 253 338 315 338 q 145 381 189 338 q 102 489 102 425 "},"¿":{"x_min":47,"x_max":873,"ha":911,"o":"m 606 696 l 606 681 q 581 565 606 614 q 491 465 556 517 q 421 419 473 451 q 342 365 370 388 q 314 329 324 351 q 305 282 305 307 q 342 202 305 230 q 446 174 379 174 q 581 219 534 174 q 629 349 629 264 l 629 366 l 873 366 l 873 354 q 763 69 873 165 q 436 -26 653 -26 q 150 52 253 -26 q 47 269 47 131 q 83 407 47 350 q 237 546 120 465 q 253 556 243 549 q 354 693 354 625 l 354 696 l 606 696 m 608 1003 l 608 762 l 354 762 l 354 1003 l 608 1003 "},"ý":{"x_min":-24,"x_max":906,"ha":880,"o":"m 89 -264 l 89 -59 l 222 -59 q 287 -41 265 -59 q 309 8 309 -24 q 307 35 309 23 q 301 56 305 46 l -24 749 l 234 749 l 434 266 l 651 749 l 906 749 l 487 -110 q 432 -195 461 -161 q 369 -245 403 -229 q 324 -259 349 -255 q 250 -264 299 -264 l 212 -264 l 89 -264 m 311 850 l 413 1066 l 708 1066 l 487 850 l 311 850 "},"º":{"x_min":33,"x_max":743,"ha":777,"o":"m 222 740 q 267 630 222 671 q 388 589 312 589 q 509 630 464 589 q 554 742 554 672 q 509 852 554 811 q 388 893 465 893 q 267 851 312 893 q 222 740 222 809 m 33 741 q 128 946 33 871 q 388 1022 223 1022 q 648 946 553 1022 q 743 741 743 871 q 648 536 743 611 q 388 461 553 461 q 128 536 223 461 q 33 741 33 611 "},"∞":{"x_min":139,"x_max":1019,"ha":1157,"o":"m 638 380 q 710 303 669 329 q 805 278 752 278 q 908 315 868 278 q 948 413 948 353 q 911 510 948 472 q 820 549 874 549 q 726 509 769 549 q 638 380 683 470 m 519 447 q 447 523 489 498 q 352 549 406 549 q 249 510 289 549 q 210 412 210 472 q 246 316 210 354 q 337 278 283 278 q 431 317 388 278 q 519 447 474 356 m 581 309 q 482 177 535 220 q 364 135 429 135 q 204 214 269 135 q 139 413 139 294 q 196 615 139 538 q 348 692 254 692 q 463 651 410 692 q 574 517 516 610 q 675 649 621 606 q 793 693 729 693 q 953 612 888 693 q 1019 413 1019 532 q 960 213 1019 289 q 809 136 902 136 q 693 176 746 136 q 581 309 641 215 "},";":{"x_min":108.078125,"x_max":379,"ha":498,"o":"m 379 509 l 118 509 l 118 749 l 379 749 l 379 509 m 118 0 l 118 241 l 379 241 l 379 77 q 354 -70 379 -5 q 273 -205 330 -134 l 108 -205 q 179 -95 157 -142 q 201 -4 201 -47 l 201 0 l 118 0 "},"6":{"x_min":60,"x_max":965,"ha":1013,"o":"m 329 318 q 377 210 329 249 q 511 171 425 171 q 663 208 609 171 q 717 314 717 245 q 664 425 717 385 q 518 465 611 465 q 380 425 432 465 q 329 318 329 385 m 318 574 q 429 630 366 611 q 566 649 491 649 q 859 562 753 649 q 965 322 965 475 q 848 65 965 157 q 519 -26 731 -26 q 177 103 294 -26 q 60 481 60 232 q 182 870 60 737 q 543 1003 305 1003 q 820 921 714 1003 q 930 706 925 840 l 680 706 q 635 782 674 756 q 525 808 596 808 q 371 752 424 808 q 318 589 318 696 l 318 574 "},"n":{"x_min":94,"x_max":937,"ha":1029,"o":"m 94 0 l 94 749 l 326 749 l 326 636 q 460 734 387 701 q 617 768 534 768 q 783 736 711 768 q 892 648 854 705 q 926 563 916 612 q 937 412 937 515 l 937 0 l 705 0 l 705 362 q 668 535 705 488 q 542 582 632 582 q 383 525 441 582 q 326 369 326 468 l 326 0 l 94 0 "},"¤":{"x_min":-7,"x_max":1001,"ha":1013,"o":"m -1 530 l 33 611 l 131 611 q 278 900 160 797 q 582 1003 395 1003 q 858 915 749 1003 q 1001 672 968 828 l 760 672 q 692 772 736 741 q 575 804 648 804 q 445 753 497 804 q 376 611 394 703 l 762 611 l 729 530 l 368 530 q 367 514 367 523 q 367 488 367 505 q 367 463 367 471 q 368 450 367 456 l 694 450 l 660 369 l 375 369 q 446 224 393 274 q 580 174 498 174 q 693 206 649 174 q 760 307 736 238 l 1001 307 q 857 60 966 146 q 578 -26 748 -26 q 275 77 391 -26 q 131 369 158 180 l -7 369 l 26 450 l 122 450 q 121 468 122 456 q 121 487 121 481 q 121 508 121 494 q 122 530 122 523 l -1 530 "},"∂":{"x_min":52,"x_max":694,"ha":742,"o":"m 517 448 q 537 577 530 516 q 544 682 544 637 q 526 789 544 750 q 479 829 509 829 q 379 779 449 829 q 270 729 310 729 q 222 749 242 729 q 202 799 202 770 q 261 879 202 842 q 404 916 320 916 q 614 806 535 916 q 694 512 694 696 q 587 132 694 282 q 318 -17 481 -17 q 127 60 202 -17 q 52 258 52 138 q 130 481 52 392 q 325 571 209 571 q 441 541 395 571 q 517 448 487 511 m 476 351 q 449 471 476 429 q 374 514 423 514 q 260 423 305 514 q 215 191 215 332 q 241 71 215 112 q 317 30 267 30 q 431 120 386 30 q 476 351 476 211 "},"p":{"x_min":98,"x_max":1018,"ha":1064,"o":"m 329 373 q 388 218 329 276 q 548 161 448 161 q 708 218 649 161 q 768 374 768 275 q 708 529 768 472 q 548 587 648 587 q 388 528 448 587 q 329 373 329 470 m 98 -264 l 98 749 l 329 749 l 329 673 q 441 744 375 721 q 594 768 507 768 q 900 658 782 768 q 1018 374 1018 548 q 900 89 1018 198 q 590 -20 782 -20 q 441 4 506 -20 q 329 77 377 28 l 329 -264 l 98 -264 "},"‡":{"x_min":132,"x_max":978,"ha":1109,"o":"m 440 -212 l 440 51 l 132 51 l 132 244 l 440 244 l 440 559 l 132 559 l 132 752 l 440 752 l 440 1003 l 668 1003 l 668 752 l 978 752 l 978 559 l 668 559 l 668 244 l 978 244 l 978 51 l 668 51 l 668 -212 l 440 -212 "},"√":{"x_min":49,"x_max":914,"ha":913,"o":"m 773 1149 l 914 1149 l 914 1062 l 844 1062 l 442 -28 l 375 -28 l 164 554 l 69 519 l 49 596 l 273 675 l 433 226 l 773 1149 "},"S":{"x_min":71,"x_max":1123,"ha":1193,"o":"m 71 348 l 328 348 l 328 338 q 402 209 328 253 q 619 165 477 165 q 789 197 729 165 q 849 288 849 229 q 809 361 849 337 q 651 396 770 384 l 473 414 q 186 502 278 434 q 95 695 95 571 q 227 936 95 843 q 578 1029 360 1029 q 945 941 812 1029 q 1078 702 1078 854 l 1078 694 l 828 694 q 757 806 819 769 q 582 844 696 844 q 418 813 476 844 q 360 728 360 783 q 394 664 360 684 q 562 629 428 644 l 748 609 q 1032 517 941 588 q 1123 315 1123 445 q 987 61 1123 148 q 589 -26 851 -26 q 205 65 339 -26 q 71 326 71 157 l 71 348 "},"/":{"x_min":-21,"x_max":515,"ha":450,"o":"m 116 -129 l -21 -129 l 377 1029 l 515 1029 l 116 -129 "},"y":{"x_min":-24,"x_max":906,"ha":880,"o":"m 89 -264 l 89 -59 l 222 -59 q 287 -41 265 -59 q 309 8 309 -24 q 307 35 309 23 q 301 56 305 46 l -24 749 l 234 749 l 434 266 l 651 749 l 906 749 l 487 -110 q 432 -195 461 -161 q 369 -245 403 -229 q 324 -259 349 -255 q 250 -264 299 -264 l 212 -264 l 89 -264 "},"≈":{"x_min":121,"x_max":1038,"ha":1157,"o":"m 1038 404 l 1038 256 q 903 183 966 206 q 780 161 841 161 q 586 206 716 161 q 382 252 456 252 q 263 226 325 252 q 121 144 202 201 l 121 292 q 261 366 196 342 q 383 390 325 390 q 597 345 467 390 q 783 301 727 301 q 901 325 841 301 q 1038 404 961 349 m 1038 684 l 1038 535 q 904 464 966 486 q 782 442 843 442 q 588 486 718 442 q 382 531 458 531 q 266 507 326 531 q 121 424 207 483 l 121 572 q 259 645 193 621 q 383 670 325 670 q 598 625 468 670 q 783 581 728 581 q 899 604 840 581 q 1038 684 958 628 "},"g":{"x_min":46,"x_max":966,"ha":1064,"o":"m 734 400 q 674 545 734 491 q 515 600 615 600 q 355 545 414 600 q 296 400 296 491 q 355 254 296 308 q 515 200 414 200 q 674 254 615 200 q 734 400 734 308 m 966 133 q 947 -52 966 3 q 883 -150 928 -107 q 728 -236 819 -208 q 508 -264 637 -264 q 210 -201 310 -264 q 109 -16 109 -139 l 109 -4 l 342 -4 q 383 -75 342 -51 q 509 -99 424 -99 q 684 -61 635 -99 q 734 71 734 -23 l 734 122 q 623 54 687 76 q 474 32 559 32 q 164 133 282 32 q 46 400 46 235 q 163 666 46 563 q 470 770 281 770 q 622 748 558 770 q 734 680 686 726 l 734 749 l 966 749 l 966 133 "},"²":{"x_min":50,"x_max":619,"ha":668,"o":"m 50 390 l 50 408 q 69 518 50 471 q 130 605 88 565 q 337 716 154 629 l 345 720 q 359 726 350 722 q 449 806 449 768 q 421 855 449 838 q 338 872 393 872 q 248 846 279 872 q 216 771 217 820 l 51 771 q 128 934 53 875 q 338 993 204 993 q 545 945 471 993 q 619 811 619 897 q 583 715 619 756 q 463 633 547 673 q 383 595 434 618 q 252 515 260 539 l 605 515 l 605 390 l 50 390 "},"ë":{"x_min":45,"x_max":945,"ha":990,"o":"m 313 470 l 687 469 q 630 579 680 539 q 500 619 580 619 q 369 578 420 619 q 313 470 319 538 m 932 243 q 771 44 885 114 q 494 -26 658 -26 q 166 82 287 -26 q 45 375 45 190 q 165 667 45 560 q 494 775 286 775 q 828 663 711 775 q 945 345 945 551 l 945 314 l 306 314 q 359 183 308 231 q 494 135 410 135 q 607 163 560 135 q 676 243 655 191 l 932 243 m 812 868 l 590 868 l 590 1047 l 812 1047 l 812 868 m 450 868 l 228 868 l 228 1047 l 450 1047 l 450 868 "},"–":{"x_min":0,"x_max":694,"ha":694,"o":"m 0 298 l 0 450 l 694 450 l 694 298 l 0 298 "},"ƒ":{"x_min":92,"x_max":921,"ha":1013,"o":"m 134 -97 q 150 -99 139 -97 q 208 -103 193 -103 q 279 -83 258 -103 q 318 18 300 -63 l 397 390 l 237 390 l 273 557 l 433 557 l 465 713 q 468 727 466 718 q 548 942 502 893 q 627 987 578 972 q 746 1003 675 1003 q 825 997 781 1003 q 921 983 869 992 l 878 789 q 862 790 873 789 q 804 794 820 794 q 732 773 753 794 q 694 675 710 753 l 669 557 l 830 557 l 794 390 l 633 390 l 547 -21 q 542 -46 545 -29 q 464 -250 509 -203 q 385 -296 434 -281 q 266 -311 337 -311 q 187 -305 231 -311 q 92 -291 143 -300 l 134 -97 "},"J":{"x_min":47,"x_max":819,"ha":922,"o":"m 47 413 l 286 413 l 286 367 q 320 225 286 273 q 424 178 355 178 q 536 227 504 178 q 569 413 569 277 l 569 1003 l 819 1003 l 819 431 q 808 237 819 295 q 772 138 797 180 q 636 16 723 58 q 433 -26 549 -26 q 140 64 234 -26 q 47 347 47 155 l 47 413 "},"Ã":{"x_min":-49,"x_max":1125,"ha":1076,"o":"m 398 415 l 663 415 l 528 724 l 398 415 m -49 0 l 426 1003 l 667 1003 l 1125 0 l 845 0 l 754 212 l 312 212 l 222 0 l -49 0 m 242 1110 l 242 1128 q 291 1263 242 1211 q 417 1315 340 1315 q 540 1290 468 1315 q 634 1265 612 1265 q 673 1277 658 1265 q 690 1311 687 1290 l 851 1312 l 851 1294 q 801 1158 851 1211 q 675 1106 751 1106 q 552 1131 624 1106 q 458 1156 480 1156 q 419 1144 434 1156 q 403 1110 405 1133 l 242 1110 "},"©":{"x_min":75,"x_max":1083,"ha":1157,"o":"m 821 608 l 693 608 q 657 681 688 655 q 577 708 627 708 q 480 652 515 708 q 445 498 445 597 q 480 346 445 398 q 582 294 515 294 q 662 322 632 294 q 698 403 691 351 l 829 403 q 755 252 823 309 q 578 196 686 196 q 379 275 452 196 q 307 494 307 355 q 381 716 307 633 q 580 800 455 800 q 750 747 683 800 q 821 608 816 694 m 579 918 q 416 886 492 918 q 282 796 341 855 q 189 658 221 735 q 158 497 158 581 q 189 337 158 413 q 282 201 221 261 q 418 109 341 141 q 579 78 494 78 q 740 109 663 78 q 878 202 816 141 q 969 335 938 260 q 1000 497 1000 411 q 968 659 1000 582 q 877 794 936 735 q 741 886 816 855 q 579 918 665 918 m 577 1003 q 772 965 680 1003 q 937 854 864 927 q 1045 691 1008 783 q 1083 496 1083 599 q 1046 304 1083 393 q 937 144 1009 214 q 768 32 861 71 q 577 -7 676 -7 q 387 31 477 -7 q 223 142 296 69 q 112 306 150 214 q 75 496 75 397 q 112 689 75 598 q 223 855 150 781 q 385 965 294 927 q 577 1003 475 1003 "},"˘":{"x_min":54,"x_max":640,"ha":694,"o":"m 640 1074 q 552 905 631 968 q 347 842 473 842 q 141 905 220 842 q 54 1074 62 968 l 221 1074 q 263 1017 230 1037 q 347 997 296 997 q 430 1017 397 997 q 473 1074 463 1037 l 640 1074 "},"≥":{"x_min":175,"x_max":983,"ha":1157,"o":"m 175 133 l 983 133 l 983 -1 l 175 -1 l 175 133 m 176 842 l 981 580 l 981 463 l 176 202 l 176 343 l 740 521 l 176 700 l 176 842 "},"D":{"x_min":113,"x_max":1187,"ha":1243,"o":"m 377 802 l 377 208 l 571 208 q 833 283 743 208 q 923 505 923 359 q 833 726 923 651 q 571 802 744 802 l 377 802 m 566 1003 q 810 987 729 1003 q 954 937 891 972 q 1126 763 1066 876 q 1187 501 1187 650 q 1126 239 1187 352 q 954 65 1066 126 q 810 14 891 29 q 566 0 729 0 l 113 0 l 113 1003 l 566 1003 "},"ÿ":{"x_min":-24,"x_max":906,"ha":880,"o":"m 89 -264 l 89 -59 l 222 -59 q 287 -41 265 -59 q 309 8 309 -24 q 307 35 309 23 q 301 56 305 46 l -24 749 l 234 749 l 434 266 l 651 749 l 906 749 l 487 -110 q 432 -195 461 -161 q 369 -245 403 -229 q 324 -259 349 -255 q 250 -264 299 -264 l 212 -264 l 89 -264 m 733 868 l 511 868 l 511 1047 l 733 1047 l 733 868 m 371 868 l 149 868 l 149 1047 l 371 1047 l 371 868 "},"ł":{"x_min":-32,"x_max":496,"ha":463,"o":"m 115 0 l 115 397 l 18 330 l -32 402 l 115 508 l 115 1003 l 347 1003 l 347 637 l 441 705 l 496 629 l 347 528 l 347 0 l 115 0 "},"Ł":{"x_min":-31.875,"x_max":887,"ha":928,"o":"m 119 0 l 119 377 l 34 320 l -31 419 l 119 527 l 119 1003 l 371 1003 l 371 665 l 561 801 l 635 699 l 371 518 l 371 211 l 887 211 l 887 0 l 119 0 "},"$":{"x_min":40,"x_max":949,"ha":1013,"o":"m 532 168 q 663 198 622 172 q 704 278 704 225 q 666 342 704 319 q 532 380 628 365 l 532 168 m 442 625 l 442 819 q 336 792 372 816 q 301 723 301 768 q 335 660 301 684 q 442 625 370 636 m 433 -120 l 433 0 q 138 92 237 8 q 40 336 40 177 l 40 353 l 275 353 q 274 342 275 350 q 273 331 273 335 q 316 213 273 255 q 445 168 359 172 l 445 399 q 150 497 239 430 q 62 689 62 565 q 157 892 62 818 q 433 978 253 967 l 433 1083 l 547 1083 l 547 978 q 817 902 723 974 q 911 695 911 829 l 911 685 l 688 685 q 649 782 686 749 q 534 819 611 815 l 534 608 q 857 508 765 574 q 949 316 949 442 q 845 83 949 164 q 547 0 742 2 l 547 -120 l 433 -120 "},"w":{"x_min":-14,"x_max":1361,"ha":1348,"o":"m 287 0 l -14 749 l 234 749 l 404 230 l 558 749 l 788 749 l 943 230 l 1110 749 l 1361 749 l 1059 0 l 829 0 l 673 501 l 516 0 l 287 0 "},"\\":{"x_min":-65,"x_max":472,"ha":450,"o":"m 333 -129 l -65 1029 l 73 1029 l 472 -129 l 333 -129 "},"∫":{"x_min":33,"x_max":771,"ha":804,"o":"m 231 -171 q 313 262 301 -171 q 318 405 315 354 q 401 902 328 750 q 623 1054 473 1054 q 730 1020 690 1054 q 771 933 771 987 q 745 867 771 892 q 677 843 719 843 q 625 859 646 843 q 597 905 604 875 q 592 942 594 919 q 572 974 590 973 q 492 544 505 974 q 488 423 489 465 q 466 122 480 223 q 426 -47 453 21 q 326 -200 388 -147 q 180 -253 263 -253 q 74 -219 115 -253 q 33 -133 33 -186 q 59 -66 33 -91 q 130 -41 85 -41 q 188 -62 164 -41 q 212 -111 212 -83 q 216 -160 212 -150 q 231 -171 220 -171 "},"Ì":{"x_min":-27,"x_max":370,"ha":482,"o":"m 115 0 l 115 1003 l 367 1003 l 367 0 l 115 0 m 193 1104 l -27 1320 l 267 1320 l 370 1104 l 193 1104 "},"Ç":{"x_min":58,"x_max":1237,"ha":1293,"o":"m 1237 389 q 1059 87 1216 200 q 659 -26 902 -26 q 221 117 384 -26 q 58 501 58 260 q 221 885 58 741 q 659 1029 384 1029 q 1056 920 899 1029 q 1233 637 1213 812 l 959 637 q 858 776 933 729 q 659 823 782 823 q 422 736 509 823 q 335 501 335 650 q 421 266 335 352 q 659 181 508 181 q 870 235 790 181 q 962 389 949 290 l 1237 389 m 446 -276 l 469 -213 q 555 -231 518 -225 q 624 -238 592 -238 q 673 -225 656 -238 q 691 -188 691 -212 q 676 -157 691 -169 q 638 -145 661 -145 q 618 -147 630 -145 q 590 -153 607 -149 l 548 -126 l 614 0 l 705 0 l 655 -82 q 686 -77 671 -79 q 717 -76 702 -76 q 803 -106 771 -76 q 835 -188 835 -137 q 790 -284 835 -253 q 654 -315 746 -315 q 561 -305 612 -315 q 446 -276 510 -295 "},"C":{"x_min":58,"x_max":1237,"ha":1293,"o":"m 1237 389 q 1059 87 1216 200 q 659 -26 902 -26 q 221 117 384 -26 q 58 501 58 260 q 221 885 58 741 q 659 1029 384 1029 q 1056 920 899 1029 q 1233 637 1213 812 l 959 637 q 858 776 933 729 q 659 823 782 823 q 422 736 509 823 q 335 501 335 650 q 421 266 335 352 q 659 181 508 181 q 870 235 790 181 q 962 389 949 290 l 1237 389 "},"!":{"x_min":117.9375,"x_max":378.71875,"ha":498,"o":"m 164 307 l 117 773 l 117 1003 l 378 1003 l 378 773 l 334 307 l 164 307 m 122 0 l 122 241 l 376 241 l 376 0 l 122 0 "},"ç":{"x_min":45,"x_max":958,"ha":1000,"o":"m 958 305 q 821 65 946 157 q 501 -26 695 -26 q 170 83 295 -26 q 45 375 45 193 q 171 667 45 560 q 518 775 297 775 q 819 693 708 775 q 950 461 931 612 l 694 461 q 635 561 684 526 q 503 596 586 596 q 352 535 409 596 q 296 373 296 474 q 352 212 296 272 q 504 153 409 153 q 637 195 584 153 q 696 305 690 237 l 958 305 m 299 -276 l 322 -213 q 408 -231 371 -225 q 477 -238 445 -238 q 526 -225 509 -238 q 544 -188 544 -212 q 529 -157 544 -169 q 491 -145 514 -145 q 471 -147 483 -145 q 443 -153 460 -149 l 401 -126 l 467 0 l 558 0 l 508 -82 q 539 -77 524 -79 q 570 -76 555 -76 q 656 -106 624 -76 q 688 -188 688 -137 q 643 -284 688 -253 q 507 -315 599 -315 q 414 -305 465 -315 q 299 -276 363 -295 "},"È":{"x_min":113,"x_max":1003,"ha":1054,"o":"m 113 0 l 113 1003 l 1003 1003 l 1003 800 l 365 800 l 365 631 l 933 631 l 933 427 l 365 427 l 365 211 l 1003 211 l 1003 0 l 113 0 m 509 1104 l 289 1320 l 583 1320 l 686 1104 l 509 1104 "},"X":{"x_min":-58,"x_max":1063,"ha":1004,"o":"m -58 0 l 355 508 l -38 1003 l 278 1003 l 508 689 l 739 1003 l 1049 1003 l 653 511 l 1063 0 l 739 0 l 505 322 l 257 0 l -58 0 "},"ô":{"x_min":45,"x_max":990,"ha":1035,"o":"m 296 373 q 356 215 296 274 q 518 157 417 157 q 678 216 618 157 q 739 375 739 275 q 679 532 739 473 q 518 591 619 591 q 356 531 417 591 q 296 373 296 472 m 45 375 q 171 667 45 560 q 518 775 297 775 q 863 667 737 775 q 990 375 990 560 q 863 81 990 189 q 518 -26 737 -26 q 172 81 299 -26 q 45 375 45 189 m 647 1066 l 859 850 l 618 850 l 518 953 l 418 850 l 178 850 l 389 1066 l 647 1066 "},"đ":{"x_min":46,"x_max":1070.4375,"ha":1071,"o":"m 734 365 q 674 519 734 461 q 515 578 614 578 q 355 519 414 578 q 296 364 296 461 q 355 208 296 265 q 515 151 414 151 q 674 209 614 151 q 734 365 734 267 m 734 661 l 734 827 l 478 827 l 478 923 l 734 923 l 734 1003 l 966 1003 l 966 923 l 1070 923 l 1070 827 l 966 827 l 966 0 l 734 0 l 734 69 q 620 -2 683 20 q 468 -25 557 -25 q 163 84 281 -25 q 46 366 46 193 q 164 649 46 541 q 473 758 282 758 q 622 734 558 758 q 734 661 687 710 "},"}":{"x_min":97,"x_max":589,"ha":694,"o":"m 97 1002 l 143 1002 q 263 993 217 1002 q 339 968 308 985 q 394 905 378 946 q 410 771 410 865 l 410 600 q 444 468 410 507 q 561 429 479 429 q 574 430 565 429 q 589 431 584 431 l 589 289 l 563 289 q 444 251 479 289 q 410 119 410 213 l 410 -50 q 394 -187 410 -147 q 339 -248 378 -226 q 261 -273 307 -265 q 148 -281 216 -281 q 123 -280 140 -281 q 97 -280 106 -280 l 97 -138 q 114 -138 103 -138 q 128 -139 124 -139 q 221 -113 197 -139 q 246 -4 246 -87 l 246 157 q 276 300 246 258 q 386 359 306 342 q 276 420 306 377 q 246 562 246 462 l 246 726 q 221 835 246 809 q 128 861 197 861 q 114 860 124 861 q 97 860 103 860 l 97 1002 "},"â":{"x_min":62,"x_max":973,"ha":1035,"o":"m 711 361 q 545 325 668 337 q 523 323 530 323 q 357 289 392 309 q 323 228 323 270 q 357 159 323 185 q 448 133 391 133 q 640 189 566 133 q 714 335 714 245 q 713 352 714 346 q 711 361 713 357 m 938 121 q 946 53 938 77 q 973 17 954 30 l 973 0 l 718 0 l 706 82 q 570 0 646 26 q 394 -26 494 -26 q 150 41 239 -26 q 62 223 62 108 q 142 382 62 329 q 416 451 222 434 q 488 455 442 453 q 712 541 712 471 q 669 605 712 584 q 539 626 626 626 q 412 596 452 626 q 370 503 371 566 l 128 502 l 128 505 q 237 705 128 636 q 553 775 346 775 q 733 755 655 775 q 864 695 811 735 q 921 619 904 665 q 938 479 938 572 l 938 121 m 688 1066 l 900 850 l 659 850 l 559 953 l 459 850 l 219 850 l 430 1066 l 688 1066 "},"ø":{"x_min":45,"x_max":990,"ha":1035,"o":"m 322 259 l 647 556 q 586 582 618 574 q 518 591 554 591 q 356 531 417 591 q 296 373 296 472 q 302 313 296 341 q 322 259 308 285 m 717 475 l 400 183 q 455 163 425 170 q 518 157 485 157 q 680 217 620 157 q 740 380 740 277 q 734 432 740 408 q 717 475 729 455 m 151 104 q 71 219 97 152 q 45 375 45 286 q 171 667 45 560 q 517 775 297 775 q 677 758 605 775 q 809 706 750 741 l 891 779 l 963 701 l 895 637 q 966 518 942 584 q 990 375 990 452 q 863 81 990 189 q 518 -26 737 -26 q 356 -9 428 -26 q 240 39 285 7 l 135 -59 l 64 22 l 151 104 "},"Ä":{"x_min":-49,"x_max":1125,"ha":1076,"o":"m 398 415 l 663 415 l 528 724 l 398 415 m -49 0 l 426 1003 l 667 1003 l 1125 0 l 845 0 l 754 212 l 312 212 l 222 0 l -49 0 m 839 1122 l 617 1122 l 617 1301 l 839 1301 l 839 1122 m 477 1122 l 255 1122 l 255 1301 l 477 1301 l 477 1122 "},"‰":{"x_min":45,"x_max":1841,"ha":1886,"o":"m 1462 235 q 1489 130 1462 167 q 1569 93 1517 93 q 1649 129 1621 93 q 1677 235 1677 166 q 1649 342 1677 305 q 1569 380 1621 380 q 1489 342 1517 380 q 1462 235 1462 304 m 1298 236 q 1368 430 1298 361 q 1567 499 1439 499 q 1769 430 1698 499 q 1841 236 1841 361 q 1769 42 1841 111 q 1567 -26 1698 -26 q 1368 42 1439 -26 q 1298 236 1298 111 m 855 235 q 883 130 855 167 q 962 93 911 93 q 1042 129 1015 93 q 1070 235 1070 166 q 1042 342 1070 305 q 962 380 1014 380 q 883 342 911 380 q 855 235 855 304 m 691 236 q 761 430 691 361 q 960 499 832 499 q 1162 430 1091 499 q 1234 236 1234 361 q 1162 42 1234 111 q 960 -26 1091 -26 q 761 42 832 -26 q 691 236 691 111 m 196 -26 l 925 1003 l 1083 1003 l 353 -26 l 196 -26 m 209 739 q 237 634 209 671 q 317 597 265 597 q 396 633 368 597 q 424 739 424 670 q 396 846 424 809 q 317 884 368 884 q 237 846 265 884 q 209 739 209 808 m 45 740 q 115 933 45 864 q 315 1003 186 1003 q 517 934 446 1003 q 588 740 588 865 q 517 546 588 615 q 315 478 446 478 q 115 546 186 478 q 45 740 45 615 "},"N":{"x_min":113,"x_max":1164,"ha":1276,"o":"m 113 0 l 113 1003 l 421 1003 l 923 295 l 923 1003 l 1164 1003 l 1164 0 l 858 0 l 353 714 l 353 0 l 113 0 "},"—":{"x_min":0,"x_max":1389,"ha":1389,"o":"m 1389 450 l 1389 298 l 0 298 l 0 450 l 1389 450 "},"2":{"x_min":75,"x_max":937,"ha":1013,"o":"m 75 0 l 75 29 q 104 213 75 134 q 197 359 133 292 q 505 540 234 399 l 523 549 q 542 559 529 553 q 679 694 679 629 q 636 775 679 747 q 514 803 594 803 q 377 760 423 803 q 328 633 330 718 l 78 633 q 194 906 80 808 q 512 1004 308 1004 q 825 924 714 1004 q 937 700 937 844 q 882 541 937 610 q 702 405 828 472 q 580 342 657 381 q 383 208 394 248 l 918 208 l 918 0 l 75 0 "},"ü":{"x_min":94,"x_max":937,"ha":1029,"o":"m 937 749 l 937 0 l 705 0 l 705 113 q 572 14 644 47 q 413 -18 500 -18 q 247 12 317 -18 q 138 100 177 42 q 104 184 114 136 q 94 337 94 233 l 94 749 l 326 749 l 326 386 q 362 215 326 261 q 488 169 398 169 q 647 224 589 169 q 705 379 705 280 l 705 749 l 937 749 m 808 868 l 586 868 l 586 1047 l 808 1047 l 808 868 m 446 868 l 224 868 l 224 1047 l 446 1047 l 446 868 "},"":{"x_min":45,"x_max":903,"ha":1011,"o":"m 671 0 l 671 1003 l 903 1003 l 903 0 l 671 0 m 154 0 l 154 573 l 45 573 l 45 749 l 154 749 l 154 823 q 211 961 154 919 q 402 1003 268 1003 l 560 1003 l 560 823 l 462 823 q 400 811 415 823 q 386 765 386 799 l 386 749 l 560 749 l 560 573 l 386 573 l 386 0 l 154 0 "},"Ó":{"x_min":58,"x_max":1260,"ha":1320,"o":"m 659 181 q 896 266 810 181 q 983 501 983 352 q 896 737 983 651 q 659 823 810 823 q 422 736 509 823 q 335 501 335 650 q 421 266 335 352 q 659 181 508 181 m 58 501 q 221 885 58 741 q 659 1029 384 1029 q 1097 885 934 1029 q 1260 501 1260 741 q 1097 117 1260 260 q 659 -26 934 -26 q 221 117 384 -26 q 58 501 58 260 m 531 1104 l 633 1320 l 928 1320 l 707 1104 l 531 1104 "},"˜":{"x_min":43,"x_max":652,"ha":694,"o":"m 43 856 l 43 874 q 92 1009 43 957 q 218 1061 141 1061 q 341 1036 269 1061 q 435 1011 413 1011 q 474 1023 459 1011 q 491 1057 488 1036 l 652 1058 l 652 1040 q 602 904 652 957 q 476 852 552 852 q 353 877 425 852 q 259 902 281 902 q 220 890 235 902 q 204 856 206 879 l 43 856 "},"ˇ":{"x_min":7,"x_max":688,"ha":694,"o":"m 218 850 l 7 1066 l 247 1066 l 347 962 l 447 1066 l 688 1066 l 476 850 l 218 850 "},"Ÿ":{"x_min":-74,"x_max":1061,"ha":987,"o":"m 364 0 l 364 427 l -74 1003 l 245 1003 l 495 644 l 743 1003 l 1061 1003 l 615 427 l 615 0 l 364 0 m 787 1122 l 565 1122 l 565 1301 l 787 1301 l 787 1122 m 425 1122 l 203 1122 l 203 1301 l 425 1301 l 425 1122 "},"€":{"x_min":-7,"x_max":1001,"ha":1013,"o":"m -1 530 l 33 611 l 131 611 q 278 900 160 797 q 582 1003 395 1003 q 858 915 749 1003 q 1001 672 968 828 l 760 672 q 692 772 736 741 q 575 804 648 804 q 445 753 497 804 q 376 611 394 703 l 762 611 l 729 530 l 368 530 q 367 514 367 523 q 367 488 367 505 q 367 463 367 471 q 368 450 367 456 l 694 450 l 660 369 l 375 369 q 446 224 393 274 q 580 174 498 174 q 693 206 649 174 q 760 307 736 238 l 1001 307 q 857 60 966 146 q 578 -26 748 -26 q 275 77 391 -26 q 131 369 158 180 l -7 369 l 26 450 l 122 450 q 121 468 122 456 q 121 487 121 481 q 121 508 121 494 q 122 530 122 523 l -1 530 "},"ß":{"x_min":93,"x_max":928,"ha":1019,"o":"m 93 0 l 93 615 q 186 912 93 822 q 497 1003 280 1003 q 783 930 682 1003 q 885 726 885 858 q 856 624 885 668 q 766 543 827 579 q 888 453 848 510 q 928 310 928 395 q 824 74 928 154 q 521 -5 721 -5 q 465 -3 492 -5 q 410 0 438 -2 l 410 169 l 465 169 q 632 203 578 169 q 687 307 687 237 q 641 408 687 378 q 479 439 595 439 l 421 439 l 421 607 l 470 607 q 602 631 562 607 q 643 712 643 656 q 605 792 643 763 q 501 822 567 822 q 366 771 407 822 q 325 607 325 721 l 325 0 l 93 0 "},"s":{"x_min":66,"x_max":921,"ha":987,"o":"m 66 245 l 311 245 q 365 163 316 188 q 520 139 414 139 q 637 159 593 139 q 681 212 681 179 q 656 254 681 241 q 551 273 631 266 l 341 291 q 157 363 225 301 q 90 520 90 425 q 194 709 90 644 q 497 775 299 775 q 792 710 685 775 q 899 530 899 645 l 899 524 l 667 524 q 614 597 658 573 q 485 622 569 622 q 374 603 414 622 q 335 553 335 585 q 374 506 335 523 q 508 483 413 490 l 671 470 q 856 403 791 461 q 921 247 921 345 q 814 43 921 113 q 500 -26 707 -26 q 183 42 292 -26 q 66 245 73 110 "},"?":{"x_min":39,"x_max":867,"ha":911,"o":"m 306 307 l 306 323 q 331 438 306 390 q 420 537 356 485 q 490 583 438 551 q 569 637 541 614 q 597 673 587 652 q 607 720 607 694 q 570 800 607 772 q 466 829 533 829 q 331 783 378 829 q 285 653 285 738 l 285 637 l 39 637 l 39 647 q 149 932 39 836 q 476 1029 260 1029 q 763 950 659 1029 q 867 732 867 871 q 830 594 867 652 q 674 456 793 536 q 658 445 669 452 q 558 309 558 376 l 558 307 l 306 307 m 304 0 l 304 241 l 558 241 l 558 0 l 304 0 "},"c":{"x_min":45,"x_max":958,"ha":1000,"o":"m 958 305 q 821 65 946 157 q 501 -26 695 -26 q 170 83 295 -26 q 45 375 45 193 q 171 667 45 560 q 518 775 297 775 q 819 693 708 775 q 950 461 931 612 l 694 461 q 635 561 684 526 q 503 596 586 596 q 352 535 409 596 q 296 373 296 474 q 352 212 296 272 q 504 153 409 153 q 637 195 584 153 q 696 305 690 237 l 958 305 "},"¶":{"x_min":27,"x_max":668,"ha":694,"o":"m 668 1003 l 668 928 l 591 928 l 591 0 l 487 0 l 487 928 l 380 928 l 380 0 l 276 0 l 276 532 q 94 600 162 536 q 27 766 27 664 q 99 938 27 873 q 292 1003 172 1003 l 668 1003 "},"•":{"x_min":208,"x_max":609,"ha":819,"o":"m 208 516 q 266 657 208 599 q 409 716 325 716 q 550 657 491 716 q 609 516 609 598 q 549 374 609 433 q 407 315 490 315 q 266 373 324 315 q 208 516 208 432 "},"(":{"x_min":114,"x_max":570,"ha":611,"o":"m 570 1003 q 413 688 464 847 q 363 359 363 529 q 413 30 363 190 q 570 -283 464 -128 l 341 -283 q 171 60 229 -102 q 114 359 114 222 q 171 659 114 497 q 341 1003 229 822 l 570 1003 "},"◊":{"x_min":4,"x_max":682,"ha":686,"o":"m 343 956 l 81 402 l 343 -157 l 604 402 l 343 956 m 343 1122 l 682 402 l 343 -323 l 4 402 l 343 1122 "},"­":{"x_min":96,"x_max":580,"ha":675,"o":"m 96 265 l 96 483 l 580 483 l 580 265 l 96 265 "},":":{"x_min":119,"x_max":379,"ha":498,"o":"m 379 0 l 119 0 l 119 241 l 379 241 l 379 0 m 379 509 l 119 509 l 119 749 l 379 749 l 379 509 "},"Û":{"x_min":113,"x_max":1139,"ha":1253,"o":"m 363 1003 l 363 464 q 425 249 363 316 q 625 182 487 182 q 752 202 698 182 q 840 264 806 223 q 877 336 866 295 q 889 464 889 377 l 889 1003 l 1139 1003 l 1139 437 q 1008 91 1139 209 q 625 -26 878 -26 q 243 91 373 -26 q 113 437 113 209 l 113 1003 l 363 1003 m 755 1320 l 967 1104 l 726 1104 l 626 1207 l 526 1104 l 286 1104 l 497 1320 l 755 1320 "},"V":{"x_min":-56,"x_max":1077,"ha":1022,"o":"m 380 0 l -56 1003 l 220 1003 l 509 283 l 802 1003 l 1077 1003 l 635 0 l 380 0 "}," ":{"x_min":0,"x_max":0,"ha":1013},"@":{"x_min":61,"x_max":1329,"ha":1389,"o":"m 791 183 q 705 99 753 126 q 589 73 656 73 q 426 131 482 73 q 371 303 371 189 q 465 576 371 466 q 698 686 560 686 q 792 663 752 686 q 858 597 832 641 l 894 663 l 1015 663 l 915 257 q 911 242 913 250 q 910 230 910 234 q 926 194 910 206 q 975 182 943 182 q 1030 196 1001 182 q 1084 234 1059 209 q 1172 360 1142 288 q 1203 520 1203 433 q 1077 788 1203 683 q 752 893 951 893 q 574 869 657 893 q 425 801 492 846 q 248 607 310 724 q 186 353 186 491 q 326 20 186 145 q 701 -104 466 -104 q 915 -70 811 -104 q 1110 25 1020 -37 l 1166 -53 q 946 -170 1062 -131 q 703 -210 830 -210 q 464 -177 573 -210 q 270 -79 355 -144 q 113 109 165 2 q 61 352 61 216 q 96 568 61 465 q 201 755 132 671 q 442 940 301 877 q 756 1004 583 1004 q 971 973 871 1004 q 1147 885 1072 942 q 1283 723 1238 814 q 1329 517 1329 632 q 1284 310 1329 405 q 1156 149 1240 216 q 1053 90 1109 111 q 936 70 997 70 q 828 99 865 70 q 791 183 792 128 m 825 474 q 786 558 816 529 q 706 587 755 587 q 571 502 628 587 q 515 300 515 418 q 542 205 515 238 q 622 173 569 173 q 724 215 678 173 q 788 327 771 258 l 825 474 "},"¾":{"x_min":28,"x_max":1547,"ha":1575,"o":"m 1302 218 l 1308 432 l 1108 218 l 1302 218 m 1302 0 l 1302 115 l 968 115 l 968 238 l 1278 547 l 1449 547 l 1449 218 l 1547 218 l 1547 115 l 1449 115 l 1449 0 l 1302 0 m 342 -26 l 1073 1003 l 1232 1003 l 499 -26 l 342 -26 m 28 623 l 186 623 l 186 619 q 217 549 186 572 q 316 527 249 527 q 408 544 377 527 q 439 598 439 562 q 406 648 439 633 q 294 663 374 663 q 270 662 279 663 q 255 661 262 662 l 255 764 l 285 764 q 392 777 362 764 q 423 825 423 791 q 394 871 423 855 q 311 888 365 888 q 224 866 252 888 q 197 802 197 845 l 197 801 l 42 801 q 116 940 44 891 q 319 990 188 990 q 509 950 441 990 q 577 839 577 910 q 555 771 577 799 q 490 722 534 742 q 571 672 545 705 q 598 590 598 640 q 518 461 598 509 q 301 414 438 414 q 99 466 170 414 q 28 614 28 518 l 28 623 "},"i":{"x_min":110,"x_max":341,"ha":450,"o":"m 341 824 l 110 824 l 110 1004 l 341 1004 l 341 824 m 110 0 l 110 749 l 341 749 l 341 0 l 110 0 "},"≤":{"x_min":175,"x_max":983,"ha":1157,"o":"m 175 133 l 983 133 l 983 -1 l 175 -1 l 175 133 m 981 842 l 981 700 l 416 521 l 981 343 l 981 202 l 175 463 l 175 580 l 981 842 "},"m":{"x_min":94,"x_max":1541,"ha":1633,"o":"m 326 636 q 460 734 387 701 q 617 768 534 768 q 803 726 725 768 q 912 612 881 685 q 1048 727 968 687 q 1221 768 1128 768 q 1387 736 1315 768 q 1496 648 1458 705 q 1530 563 1520 612 q 1541 412 1541 515 l 1541 0 l 1309 0 l 1309 362 q 1272 535 1309 488 q 1146 582 1236 582 q 987 525 1045 582 q 930 369 930 468 l 930 0 l 705 0 l 705 362 q 668 535 705 488 q 542 582 632 582 q 383 525 441 582 q 326 369 326 468 l 326 0 l 94 0 l 94 749 l 326 749 l 326 636 "},"ž":{"x_min":46,"x_max":842,"ha":888,"o":"m 46 0 l 46 180 l 515 570 l 79 570 l 79 749 l 827 749 l 827 570 l 351 180 l 842 180 l 842 0 l 46 0 m 315 850 l 104 1066 l 344 1066 l 444 962 l 544 1066 l 785 1066 l 573 850 l 315 850 "},"á":{"x_min":62,"x_max":973,"ha":1035,"o":"m 711 361 q 545 325 668 337 q 523 323 530 323 q 357 289 392 309 q 323 228 323 270 q 357 159 323 185 q 448 133 391 133 q 640 189 566 133 q 714 335 714 245 q 713 352 714 346 q 711 361 713 357 m 938 121 q 946 53 938 77 q 973 17 954 30 l 973 0 l 718 0 l 706 82 q 570 0 646 26 q 394 -26 494 -26 q 150 41 239 -26 q 62 223 62 108 q 142 382 62 329 q 416 451 222 434 q 488 455 442 453 q 712 541 712 471 q 669 605 712 584 q 539 626 626 626 q 412 596 452 626 q 370 503 371 566 l 128 502 l 128 505 q 237 705 128 636 q 553 775 346 775 q 733 755 655 775 q 864 695 811 735 q 921 619 904 665 q 938 479 938 572 l 938 121 m 430 850 l 532 1066 l 827 1066 l 606 850 l 430 850 "},"×":{"x_min":187,"x_max":989,"ha":1157,"o":"m 281 816 l 587 510 l 893 816 l 989 721 l 683 414 l 989 108 l 893 14 l 587 320 l 281 14 l 187 108 l 493 414 l 187 721 l 281 816 "},"İ":{"x_min":115,"x_max":367,"ha":482,"o":"m 115 0 l 115 1003 l 367 1003 l 367 0 l 115 0 m 154 1127 l 154 1295 l 330 1295 l 330 1127 l 154 1127 "},"K":{"x_min":113,"x_max":1164,"ha":1120,"o":"m 113 0 l 113 1003 l 365 1003 l 365 617 l 786 1003 l 1110 1003 l 668 613 l 1164 0 l 856 0 l 492 459 l 365 347 l 365 0 l 113 0 "},"7":{"x_min":69,"x_max":942,"ha":1013,"o":"m 209 0 q 364 410 257 220 q 644 775 470 600 l 69 775 l 69 978 l 942 978 l 942 794 q 656 454 768 652 q 494 0 544 256 l 209 0 "},"¨":{"x_min":56,"x_max":640,"ha":694,"o":"m 640 868 l 418 868 l 418 1047 l 640 1047 l 640 868 m 278 868 l 56 868 l 56 1047 l 278 1047 l 278 868 "},"Y":{"x_min":-74,"x_max":1061,"ha":987,"o":"m 364 0 l 364 427 l -74 1003 l 245 1003 l 495 644 l 743 1003 l 1061 1003 l 615 427 l 615 0 l 364 0 "},"E":{"x_min":113,"x_max":1003,"ha":1054,"o":"m 113 0 l 113 1003 l 1003 1003 l 1003 800 l 365 800 l 365 631 l 933 631 l 933 427 l 365 427 l 365 211 l 1003 211 l 1003 0 l 113 0 "},"Ô":{"x_min":58,"x_max":1260,"ha":1320,"o":"m 659 181 q 896 266 810 181 q 983 501 983 352 q 896 737 983 651 q 659 823 810 823 q 422 736 509 823 q 335 501 335 650 q 421 266 335 352 q 659 181 508 181 m 58 501 q 221 885 58 741 q 659 1029 384 1029 q 1097 885 934 1029 q 1260 501 1260 741 q 1097 117 1260 260 q 659 -26 934 -26 q 221 117 384 -26 q 58 501 58 260 m 789 1320 l 1001 1104 l 760 1104 l 660 1207 l 560 1104 l 320 1104 l 531 1320 l 789 1320 "},"Ï":{"x_min":-50,"x_max":534,"ha":482,"o":"m 115 0 l 115 1003 l 367 1003 l 367 0 l 115 0 m 534 1122 l 312 1122 l 312 1301 l 534 1301 l 534 1122 m 172 1122 l -50 1122 l -50 1301 l 172 1301 l 172 1122 "},"‹":{"x_min":93,"x_max":390,"ha":489,"o":"m 93 457 l 390 696 l 390 474 l 255 375 l 390 273 l 390 53 l 93 291 l 93 457 "},"±":{"x_min":172,"x_max":985,"ha":1157,"o":"m 172 134 l 985 134 l 985 -1 l 172 -1 l 172 134 m 510 829 l 647 829 l 647 608 l 985 608 l 985 473 l 647 473 l 647 253 l 510 253 l 510 473 l 172 473 l 172 608 l 510 608 l 510 829 "},"ì":{"x_min":-43,"x_max":354,"ha":450,"o":"m 110 0 l 110 749 l 341 749 l 341 0 l 110 0 m 177 850 l -43 1066 l 251 1066 l 354 850 l 177 850 "},"|":{"x_min":278,"x_max":418,"ha":694,"o":"m 278 1061 l 418 1061 l 418 -328 l 278 -328 l 278 1061 "},"§":{"x_min":37,"x_max":1072,"ha":1109,"o":"m 781 265 q 830 307 813 282 q 848 362 848 332 q 823 425 848 403 q 732 462 799 447 l 416 531 q 378 540 403 534 q 320 556 354 546 q 277 513 291 536 q 264 463 264 490 q 286 404 264 428 q 351 370 309 380 l 657 299 q 726 282 694 291 q 781 265 758 273 m 84 78 l 345 78 q 403 -14 345 16 q 579 -45 461 -45 q 687 -24 647 -45 q 727 27 727 -4 q 696 72 727 55 q 571 109 665 90 l 335 157 q 108 254 179 190 q 37 426 37 318 q 78 563 37 504 q 195 651 119 622 q 159 715 171 681 q 148 789 148 750 q 252 967 148 905 q 555 1029 357 1029 q 848 955 746 1029 q 954 740 949 881 l 727 740 l 727 746 q 677 832 727 803 q 528 862 627 862 q 434 842 468 862 q 401 789 401 823 q 418 746 401 762 q 477 721 436 730 l 802 655 q 1006 563 940 626 q 1072 395 1072 500 q 1037 275 1072 325 q 932 197 1002 225 q 986 132 969 169 q 1004 44 1004 94 q 881 -154 1004 -81 q 545 -227 759 -227 q 219 -147 339 -227 q 84 78 98 -67 "},"q":{"x_min":46,"x_max":966,"ha":1064,"o":"m 734 373 q 674 528 734 470 q 515 587 614 587 q 355 529 415 587 q 296 374 296 472 q 355 218 296 275 q 515 161 414 161 q 674 218 614 161 q 734 373 734 276 m 966 -264 l 734 -264 l 734 77 q 621 4 685 28 q 473 -20 557 -20 q 163 89 281 -20 q 46 374 46 198 q 163 658 46 548 q 468 768 281 768 q 622 744 557 768 q 734 673 687 721 l 734 749 l 966 749 l 966 -264 "},"b":{"x_min":98,"x_max":1018,"ha":1064,"o":"m 329 661 q 438 733 373 709 q 590 758 504 758 q 900 649 782 758 q 1018 366 1018 541 q 900 84 1018 193 q 594 -25 782 -25 q 442 -1 507 -25 q 329 69 377 21 l 329 0 l 98 0 l 98 1003 l 329 1003 l 329 661 m 329 365 q 388 209 329 268 q 548 151 448 151 q 708 208 648 151 q 768 364 768 266 q 708 520 768 462 q 548 578 649 578 q 388 519 448 578 q 329 365 329 461 "},"®":{"x_min":75,"x_max":1083,"ha":1157,"o":"m 505 701 l 505 539 l 572 539 q 660 557 632 539 q 688 617 688 576 q 658 680 688 660 q 565 701 628 701 l 505 701 m 369 787 l 588 787 q 768 746 708 787 q 828 626 828 706 q 795 531 828 570 q 705 478 763 492 l 830 228 l 679 228 l 572 457 l 505 457 l 505 228 l 369 228 l 369 787 m 579 918 q 419 887 492 918 q 286 799 345 857 q 191 659 224 737 q 158 498 158 581 q 189 339 158 414 q 279 205 220 263 q 416 110 339 143 q 577 78 494 78 q 735 109 659 78 q 875 201 812 141 q 967 333 934 257 q 1000 490 1000 409 q 969 655 1000 580 q 880 791 939 731 q 742 886 818 854 q 579 918 666 918 m 577 1003 q 774 964 682 1003 q 939 851 867 925 q 1046 689 1009 780 q 1083 496 1083 598 q 1045 301 1083 393 q 934 140 1007 210 q 769 30 861 68 q 577 -7 676 -7 q 384 32 476 -7 q 219 145 292 71 q 111 307 148 216 q 75 496 75 397 q 93 631 75 566 q 148 759 111 697 q 329 938 216 874 q 577 1003 441 1003 "},"L":{"x_min":113,"x_max":881,"ha":921,"o":"m 113 0 l 113 1003 l 365 1003 l 365 211 l 881 211 l 881 0 l 113 0 "}," ":{"x_min":0,"x_max":0,"ha":507},"∑":{"x_min":28,"x_max":968,"ha":997,"o":"m 45 999 l 932 999 l 932 819 l 336 819 l 757 381 l 335 -87 l 968 -87 l 968 -267 l 28 -267 l 28 -150 l 501 373 l 45 841 l 45 999 "},"À":{"x_min":-49,"x_max":1125,"ha":1076,"o":"m 398 415 l 663 415 l 528 724 l 398 415 m -49 0 l 426 1003 l 667 1003 l 1125 0 l 845 0 l 754 212 l 312 212 l 222 0 l -49 0 m 498 1104 l 278 1320 l 572 1320 l 675 1104 l 498 1104 "},"+":{"x_min":172,"x_max":985,"ha":1157,"o":"m 510 828 l 647 828 l 647 482 l 985 482 l 985 347 l 647 347 l 647 0 l 510 0 l 510 347 l 172 347 l 172 482 l 510 482 l 510 828 "},"½":{"x_min":108,"x_max":1526,"ha":1575,"o":"m 983 0 l 983 16 q 1001 120 983 75 q 1059 201 1019 164 q 1245 298 1082 223 l 1266 308 l 1275 312 q 1363 388 1363 351 q 1336 434 1363 418 q 1259 450 1310 450 q 1172 425 1201 450 q 1142 354 1143 401 l 984 354 q 1057 507 986 452 q 1257 562 1129 562 q 1455 517 1384 562 q 1526 393 1526 473 q 1492 303 1526 341 q 1378 227 1458 264 q 1298 190 1349 213 q 1177 117 1183 138 l 1513 116 l 1513 0 l 983 0 m 342 -26 l 1073 1003 l 1232 1003 l 499 -26 l 342 -26 m 275 430 l 275 793 l 108 793 l 108 885 l 121 885 q 239 906 199 885 q 292 977 280 928 l 424 977 l 424 430 l 275 430 "},"Ë":{"x_min":113,"x_max":1003,"ha":1054,"o":"m 113 0 l 113 1003 l 1003 1003 l 1003 800 l 365 800 l 365 631 l 933 631 l 933 427 l 365 427 l 365 211 l 1003 211 l 1003 0 l 113 0 m 850 1122 l 628 1122 l 628 1301 l 850 1301 l 850 1122 m 488 1122 l 266 1122 l 266 1301 l 488 1301 l 488 1122 "},"'":{"x_min":54,"x_max":185,"ha":239,"o":"m 54 975 l 185 975 l 185 596 l 54 596 l 54 975 "},"Š":{"x_min":71,"x_max":1123,"ha":1193,"o":"m 71 348 l 328 348 l 328 338 q 402 209 328 253 q 619 165 477 165 q 789 197 729 165 q 849 288 849 229 q 809 361 849 337 q 651 396 770 384 l 473 414 q 186 502 278 434 q 95 695 95 571 q 227 936 95 843 q 578 1029 360 1029 q 945 941 812 1029 q 1078 702 1078 854 l 1078 694 l 828 694 q 757 806 819 769 q 582 844 696 844 q 418 813 476 844 q 360 728 360 783 q 394 664 360 684 q 562 629 428 644 l 748 609 q 1032 517 941 588 q 1123 315 1123 445 q 987 61 1123 148 q 589 -26 851 -26 q 205 65 339 -26 q 71 326 71 157 l 71 348 m 468 1104 l 257 1320 l 497 1320 l 597 1216 l 697 1320 l 938 1320 l 726 1104 l 468 1104 "},"˛":{"x_min":225,"x_max":469,"ha":694,"o":"m 428 0 q 367 -70 386 -39 q 348 -133 348 -102 q 360 -174 348 -161 q 399 -187 373 -187 l 469 -187 l 469 -317 l 418 -317 q 269 -286 313 -317 q 225 -183 225 -255 q 256 -87 225 -131 q 354 0 287 -43 l 428 0 "},"ð":{"x_min":45,"x_max":990,"ha":1035,"o":"m 617 697 q 568 766 592 736 q 526 816 545 796 l 269 719 l 243 800 l 463 885 q 439 911 451 898 q 412 937 426 924 l 541 1050 q 610 992 581 1017 q 654 951 639 966 l 838 1020 l 873 942 l 719 881 q 922 607 855 741 q 990 343 990 473 q 864 73 990 171 q 518 -25 739 -25 q 171 72 297 -25 q 45 339 45 170 q 169 605 45 507 q 512 703 294 703 q 566 701 540 703 q 617 697 592 700 m 296 343 q 356 208 296 259 q 518 157 417 157 q 678 207 618 157 q 739 343 739 258 q 679 480 739 429 q 518 531 619 531 q 356 479 417 531 q 296 343 296 428 "},"ş":{"x_min":66,"x_max":921,"ha":987,"o":"m 66 245 l 311 245 q 365 163 316 188 q 520 139 414 139 q 637 159 593 139 q 681 212 681 179 q 656 254 681 241 q 551 273 631 266 l 341 291 q 157 363 225 301 q 90 520 90 425 q 194 709 90 644 q 497 775 299 775 q 792 710 685 775 q 899 530 899 645 l 899 524 l 667 524 q 614 597 658 573 q 485 622 569 622 q 374 603 414 622 q 335 553 335 585 q 374 506 335 523 q 508 483 413 490 l 671 470 q 856 403 791 461 q 921 247 921 345 q 814 43 921 113 q 500 -26 707 -26 q 183 42 292 -26 q 66 245 73 110 m 293 -276 l 316 -213 q 402 -231 365 -225 q 471 -238 439 -238 q 520 -225 503 -238 q 538 -188 538 -212 q 523 -157 538 -169 q 485 -145 508 -145 q 465 -147 477 -145 q 437 -153 454 -149 l 395 -126 l 461 0 l 552 0 l 502 -82 q 533 -77 518 -79 q 564 -76 549 -76 q 650 -106 618 -76 q 682 -188 682 -137 q 637 -284 682 -253 q 501 -315 593 -315 q 408 -305 459 -315 q 293 -276 357 -295 "},"ı":{"x_min":110,"x_max":341,"ha":450,"o":"m 110 0 l 110 749 l 341 749 l 341 0 l 110 0 "},"Ć":{"x_min":58,"x_max":1237,"ha":1293,"o":"m 1237 389 q 1059 87 1216 200 q 659 -26 902 -26 q 221 117 384 -26 q 58 501 58 260 q 221 885 58 741 q 659 1029 384 1029 q 1056 920 899 1029 q 1233 637 1213 812 l 959 637 q 858 776 933 729 q 659 823 782 823 q 422 736 509 823 q 335 501 335 650 q 421 266 335 352 q 659 181 508 181 q 870 235 790 181 q 962 389 949 290 l 1237 389 m 548 1104 l 650 1320 l 945 1320 l 724 1104 l 548 1104 "},"ä":{"x_min":62,"x_max":973,"ha":1035,"o":"m 711 361 q 545 325 668 337 q 523 323 530 323 q 357 289 392 309 q 323 228 323 270 q 357 159 323 185 q 448 133 391 133 q 640 189 566 133 q 714 335 714 245 q 713 352 714 346 q 711 361 713 357 m 938 121 q 946 53 938 77 q 973 17 954 30 l 973 0 l 718 0 l 706 82 q 570 0 646 26 q 394 -26 494 -26 q 150 41 239 -26 q 62 223 62 108 q 142 382 62 329 q 416 451 222 434 q 488 455 442 453 q 712 541 712 471 q 669 605 712 584 q 539 626 626 626 q 412 596 452 626 q 370 503 371 566 l 128 502 l 128 505 q 237 705 128 636 q 553 775 346 775 q 733 755 655 775 q 864 695 811 735 q 921 619 904 665 q 938 479 938 572 l 938 121 m 852 868 l 630 868 l 630 1047 l 852 1047 l 852 868 m 490 868 l 268 868 l 268 1047 l 490 1047 l 490 868 "},"¹":{"x_min":114,"x_max":444,"ha":668,"o":"m 289 390 l 289 781 l 114 781 l 114 879 l 127 879 q 251 902 209 879 q 307 977 293 925 l 444 977 l 444 390 l 289 390 "},"£":{"x_min":62.609375,"x_max":967.703125,"ha":1013,"o":"m 173 -26 l 62 182 q 174 278 137 231 q 211 375 211 326 q 208 399 211 384 q 208 403 208 401 l 87 403 l 87 571 l 173 571 q 146 640 155 606 q 138 707 138 674 q 243 925 138 847 q 536 1003 348 1003 q 835 912 729 1003 q 946 652 940 822 l 700 652 q 657 769 697 729 q 544 810 618 810 q 431 774 473 810 q 390 677 390 738 q 397 628 390 655 q 417 571 404 601 l 660 571 l 660 403 l 452 403 q 427 307 449 352 q 365 225 405 261 q 417 234 393 231 q 459 238 440 238 q 583 219 496 238 q 722 201 671 201 q 813 214 769 201 q 908 260 857 228 l 967 32 q 855 -11 912 2 q 740 -26 799 -26 q 533 2 663 -26 q 351 31 402 31 q 261 16 305 31 q 173 -26 217 2 "},"W":{"x_min":-22,"x_max":1617,"ha":1594,"o":"m 297 0 l -22 1003 l 238 1003 l 438 327 l 674 1003 l 922 1003 l 1150 327 l 1355 1003 l 1617 1003 l 1292 0 l 1036 0 l 796 730 l 544 0 l 297 0 "},"Ğ":{"x_min":58,"x_max":1223,"ha":1328,"o":"m 1015 112 q 851 8 943 43 q 644 -26 760 -26 q 425 6 528 -26 q 245 98 321 39 q 104 272 150 173 q 58 501 58 371 q 221 885 58 741 q 659 1029 384 1029 q 1046 925 891 1029 q 1223 656 1200 822 l 950 656 q 843 781 915 739 q 659 823 771 823 q 422 736 509 823 q 335 501 335 650 q 421 266 335 352 q 659 181 508 181 q 839 224 762 181 q 953 346 917 268 l 725 346 l 725 546 l 1220 546 l 1220 0 l 1029 0 l 1015 112 m 957 1328 q 869 1159 948 1222 q 664 1096 790 1096 q 458 1159 537 1096 q 371 1328 379 1222 l 538 1328 q 580 1271 547 1291 q 664 1251 613 1251 q 747 1271 714 1251 q 790 1328 780 1291 l 957 1328 "},"v":{"x_min":-26,"x_max":907,"ha":880,"o":"m 323 0 l -26 749 l 227 749 l 432 259 l 656 749 l 907 749 l 542 0 l 323 0 "},">":{"x_min":179,"x_max":978,"ha":1157,"o":"m 179 809 l 978 481 l 978 346 l 179 18 l 179 166 l 786 413 l 179 660 l 179 809 "},"û":{"x_min":94,"x_max":937,"ha":1029,"o":"m 937 749 l 937 0 l 705 0 l 705 113 q 572 14 644 47 q 413 -18 500 -18 q 247 12 317 -18 q 138 100 177 42 q 104 184 114 136 q 94 337 94 233 l 94 749 l 326 749 l 326 386 q 362 215 326 261 q 488 169 398 169 q 647 224 589 169 q 705 379 705 280 l 705 749 l 937 749 m 644 1066 l 856 850 l 615 850 l 515 953 l 415 850 l 175 850 l 386 1066 l 644 1066 "},"Ð":{"x_min":0,"x_max":1191,"ha":1250,"o":"m 369 802 l 369 585 l 642 585 l 642 457 l 369 457 l 369 208 l 577 208 q 839 283 749 208 q 929 505 929 359 q 839 726 929 651 q 577 802 750 802 l 369 802 m 119 1003 l 571 1003 q 815 987 734 1003 q 960 937 896 972 q 1131 763 1071 876 q 1191 501 1191 651 q 1131 239 1191 351 q 960 65 1071 126 q 815 14 896 29 q 571 0 734 0 l 119 0 l 119 457 l 0 457 l 0 585 l 119 585 l 119 1003 "},"r":{"x_min":94,"x_max":618,"ha":616,"o":"m 326 0 l 94 0 l 94 749 l 326 749 l 326 649 q 434 744 378 713 q 552 775 491 775 q 599 771 565 775 q 618 769 611 770 l 618 572 q 591 574 606 573 q 544 575 576 575 q 384 511 442 575 q 326 334 326 447 l 326 0 "},"Č":{"x_min":58,"x_max":1237,"ha":1293,"o":"m 1237 389 q 1059 87 1216 200 q 659 -26 902 -26 q 221 117 384 -26 q 58 501 58 260 q 221 885 58 741 q 659 1029 384 1029 q 1056 920 899 1029 q 1233 637 1213 812 l 959 637 q 858 776 933 729 q 659 823 782 823 q 422 736 509 823 q 335 501 335 650 q 421 266 335 352 q 659 181 508 181 q 870 235 790 181 q 962 389 949 290 l 1237 389 m 548 1104 l 337 1320 l 577 1320 l 677 1216 l 777 1320 l 1018 1320 l 806 1104 l 548 1104 "},"x":{"x_min":-36,"x_max":911,"ha":875,"o":"m -36 0 l 294 381 l 0 749 l 290 749 l 436 548 l 588 749 l 889 749 l 570 375 l 911 0 l 602 0 l 431 209 l 267 0 l -36 0 "},"è":{"x_min":45,"x_max":945,"ha":990,"o":"m 313 470 l 687 469 q 630 579 680 539 q 500 619 580 619 q 369 578 420 619 q 313 470 319 538 m 932 243 q 771 44 885 114 q 494 -26 658 -26 q 166 82 287 -26 q 45 375 45 190 q 165 667 45 560 q 494 775 286 775 q 828 663 711 775 q 945 345 945 551 l 945 314 l 306 314 q 359 183 308 231 q 494 135 410 135 q 607 163 560 135 q 676 243 655 191 l 932 243 m 471 850 l 251 1066 l 545 1066 l 648 850 l 471 850 "},"Ø":{"x_min":58,"x_max":1260,"ha":1320,"o":"m 374 325 l 856 768 q 763 809 812 795 q 659 823 714 823 q 422 736 509 823 q 335 501 335 650 q 344 402 335 445 q 374 325 354 359 m 943 676 l 463 233 q 551 194 501 208 q 659 181 601 181 q 896 266 810 181 q 983 501 983 351 q 972 600 983 555 q 943 676 962 644 m 187 150 q 89 308 121 222 q 58 501 58 395 q 221 885 58 741 q 659 1029 384 1029 q 865 1004 770 1029 q 1031 932 959 979 l 1162 1052 l 1249 959 l 1131 849 q 1227 695 1194 783 q 1260 501 1260 607 q 1097 117 1260 260 q 659 -26 934 -26 q 452 -1 547 -26 q 287 69 356 23 l 148 -59 l 66 36 l 187 150 "},"÷":{"x_min":171,"x_max":986,"ha":1157,"o":"m 578 250 q 650 219 620 250 q 681 146 681 189 q 650 75 681 105 q 578 46 620 46 q 506 75 536 46 q 476 146 476 104 q 506 219 476 189 q 578 250 536 250 m 171 482 l 986 482 l 986 347 l 171 347 l 171 482 m 578 783 q 650 753 620 783 q 681 681 681 723 q 650 608 681 638 q 578 579 620 579 q 506 608 536 579 q 476 681 476 638 q 506 753 476 723 q 578 783 536 783 "},"h":{"x_min":94,"x_max":937,"ha":1029,"o":"m 94 0 l 94 1003 l 326 1003 l 326 636 q 458 733 386 701 q 617 766 531 766 q 784 736 713 766 q 892 648 854 706 q 926 563 916 612 q 937 412 937 515 l 937 0 l 705 0 l 705 362 q 668 535 705 488 q 542 582 632 582 q 383 525 441 582 q 326 369 326 468 l 326 0 l 94 0 "},".":{"x_min":122,"x_max":383,"ha":507,"o":"m 122 0 l 122 241 l 383 241 l 383 0 l 122 0 "},"f":{"x_min":45,"x_max":560,"ha":585,"o":"m 154 0 l 154 573 l 45 573 l 45 749 l 154 749 l 154 823 q 211 961 154 919 q 403 1003 268 1003 l 560 1003 l 560 823 l 462 823 q 400 811 415 823 q 386 765 386 799 l 386 749 l 560 749 l 560 573 l 386 573 l 386 0 l 154 0 "},"“":{"x_min":114,"x_max":743.53125,"ha":840,"o":"m 732 799 l 732 557 l 472 557 l 472 721 q 496 868 472 803 q 577 1003 520 932 l 743 1003 q 671 893 693 939 q 650 803 650 846 l 650 799 l 732 799 m 374 799 l 374 557 l 114 557 l 114 721 q 137 869 114 805 q 218 1003 161 933 l 384 1003 q 311 892 333 938 q 290 803 290 845 l 290 799 l 374 799 "},"A":{"x_min":-49,"x_max":1125,"ha":1076,"o":"m 398 415 l 663 415 l 528 724 l 398 415 m -49 0 l 426 1003 l 667 1003 l 1125 0 l 845 0 l 754 212 l 312 212 l 222 0 l -49 0 "},"O":{"x_min":58,"x_max":1260,"ha":1320,"o":"m 659 181 q 896 266 810 181 q 983 501 983 352 q 896 737 983 651 q 659 823 810 823 q 422 736 509 823 q 335 501 335 650 q 421 266 335 352 q 659 181 508 181 m 58 501 q 221 885 58 741 q 659 1029 384 1029 q 1097 885 934 1029 q 1260 501 1260 741 q 1097 117 1260 260 q 659 -26 934 -26 q 221 117 384 -26 q 58 501 58 260 "},"π":{"x_min":-24,"x_max":918,"ha":895,"o":"m 918 741 l 891 589 l 772 589 l 667 0 l 473 0 l 576 589 l 414 589 l 312 0 l 117 0 l 221 589 l 204 589 q 147 567 166 589 q 120 500 127 546 l -24 500 q 59 688 -4 635 q 270 741 123 741 l 918 741 "},"‘":{"x_min":114,"x_max":384.84375,"ha":482,"o":"m 374 799 l 374 557 l 114 557 l 114 721 q 137 869 114 805 q 218 1003 161 933 l 384 1003 q 311 892 333 938 q 290 803 290 845 l 290 799 l 374 799 "},"3":{"x_min":45,"x_max":949,"ha":1013,"o":"m 45 346 l 295 346 l 295 339 q 346 214 295 254 q 502 174 397 174 q 647 205 599 174 q 696 300 696 237 q 645 390 696 364 q 467 417 594 417 q 429 416 442 417 q 404 416 415 416 l 404 599 q 429 598 412 599 q 452 598 445 598 q 621 623 572 598 q 671 706 671 648 q 624 789 671 760 q 494 819 578 819 q 357 782 401 819 q 313 668 313 745 l 313 664 l 65 664 q 184 914 69 826 q 507 1003 299 1003 q 808 931 700 1003 q 916 730 916 859 q 882 609 916 659 q 778 524 848 558 q 906 434 864 492 q 949 289 949 376 q 822 59 949 144 q 478 -26 695 -26 q 157 67 270 -26 q 45 330 45 160 l 45 346 "},"9":{"x_min":49,"x_max":954,"ha":1013,"o":"m 299 662 q 351 552 299 592 q 497 513 403 513 q 634 553 583 513 q 686 660 686 593 q 637 768 686 729 q 504 807 589 807 q 353 769 407 807 q 299 662 299 731 m 85 271 l 335 271 q 379 195 341 220 q 488 170 416 170 q 642 226 588 170 q 696 388 696 282 l 696 404 q 584 347 646 366 q 447 328 521 328 q 155 415 261 328 q 49 656 49 502 q 166 911 49 819 q 495 1003 284 1003 q 837 874 720 1003 q 954 497 954 745 q 830 107 954 240 q 470 -26 707 -26 q 194 55 299 -26 q 85 271 89 136 "},"l":{"x_min":110,"x_max":341,"ha":450,"o":"m 110 0 l 110 1003 l 341 1003 l 341 0 l 110 0 "},"":{"x_min":45,"x_max":903,"ha":1011,"o":"m 671 0 l 671 749 l 903 749 l 903 0 l 671 0 m 903 823 l 671 823 l 671 1003 l 903 1003 l 903 823 m 154 0 l 154 573 l 45 573 l 45 749 l 154 749 l 154 823 q 211 961 154 919 q 402 1003 268 1003 l 560 1003 l 560 823 l 462 823 q 400 811 415 823 q 386 765 386 799 l 386 749 l 560 749 l 560 573 l 386 573 l 386 0 l 154 0 "},"4":{"x_min":50,"x_max":971,"ha":1013,"o":"m 579 390 l 589 772 l 273 390 l 579 390 m 579 0 l 579 206 l 50 206 l 50 426 l 543 978 l 814 978 l 814 390 l 971 390 l 971 206 l 814 206 l 814 0 l 579 0 "},"Ü":{"x_min":113,"x_max":1139,"ha":1253,"o":"m 363 1003 l 363 464 q 425 249 363 316 q 625 182 487 182 q 752 202 698 182 q 840 264 806 223 q 877 336 866 295 q 889 464 889 377 l 889 1003 l 1139 1003 l 1139 437 q 1008 91 1139 209 q 625 -26 878 -26 q 243 91 373 -26 q 113 437 113 209 l 113 1003 l 363 1003 m 919 1122 l 697 1122 l 697 1301 l 919 1301 l 919 1122 m 557 1122 l 335 1122 l 335 1301 l 557 1301 l 557 1122 "},"à":{"x_min":62,"x_max":973,"ha":1035,"o":"m 711 361 q 545 325 668 337 q 523 323 530 323 q 357 289 392 309 q 323 228 323 270 q 357 159 323 185 q 448 133 391 133 q 640 189 566 133 q 714 335 714 245 q 713 352 714 346 q 711 361 713 357 m 938 121 q 946 53 938 77 q 973 17 954 30 l 973 0 l 718 0 l 706 82 q 570 0 646 26 q 394 -26 494 -26 q 150 41 239 -26 q 62 223 62 108 q 142 382 62 329 q 416 451 222 434 q 488 455 442 453 q 712 541 712 471 q 669 605 712 584 q 539 626 626 626 q 412 596 452 626 q 370 503 371 566 l 128 502 l 128 505 q 237 705 128 636 q 553 775 346 775 q 733 755 655 775 q 864 695 811 735 q 921 619 904 665 q 938 479 938 572 l 938 121 m 511 850 l 291 1066 l 585 1066 l 688 850 l 511 850 "},"ó":{"x_min":45,"x_max":990,"ha":1035,"o":"m 296 373 q 356 215 296 274 q 518 157 417 157 q 678 216 618 157 q 739 375 739 275 q 679 532 739 473 q 518 591 619 591 q 356 531 417 591 q 296 373 296 472 m 45 375 q 171 667 45 560 q 518 775 297 775 q 863 667 737 775 q 990 375 990 560 q 863 81 990 189 q 518 -26 737 -26 q 172 81 299 -26 q 45 375 45 189 m 389 850 l 491 1066 l 786 1066 l 565 850 l 389 850 "}}}
